<svg width="135" height="33" viewBox="0 0 135 33" fill="none" xmlns="http://www.w3.org/2000/svg">
<mask id="path-1-outside-1_3318_344" maskUnits="userSpaceOnUse" x="0.822205" y="10" width="110" height="16" fill="black">
<rect fill="white" x="0.822205" y="10" width="110" height="16"/>
<path d="M7.55821 22.16C6.68354 22.16 5.8782 22.0213 5.1422 21.744C4.41687 21.456 3.7822 21.056 3.2382 20.544C2.6942 20.0213 2.27287 19.408 1.9742 18.704C1.67554 18 1.5262 17.232 1.5262 16.4C1.5262 15.568 1.67554 14.8 1.9742 14.096C2.27287 13.392 2.6942 12.784 3.2382 12.272C3.79287 11.7493 4.4382 11.3493 5.1742 11.072C5.9102 10.784 6.71554 10.64 7.5902 10.64C8.53954 10.64 9.39287 10.7947 10.1502 11.104C10.9182 11.4133 11.5635 11.8667 12.0862 12.464L10.7742 13.744C10.3369 13.3067 9.86221 12.9867 9.35021 12.784C8.84887 12.5707 8.29421 12.464 7.6862 12.464C7.09954 12.464 6.55554 12.56 6.0542 12.752C5.55287 12.944 5.12087 13.216 4.7582 13.568C4.39554 13.92 4.11287 14.336 3.9102 14.816C3.7182 15.296 3.6222 15.824 3.6222 16.4C3.6222 16.9653 3.7182 17.488 3.9102 17.968C4.11287 18.448 4.39554 18.8693 4.7582 19.232C5.12087 19.584 5.54754 19.856 6.0382 20.048C6.52887 20.24 7.07287 20.336 7.67021 20.336C8.22487 20.336 8.7582 20.2507 9.2702 20.08C9.79287 19.8987 10.2889 19.6 10.7582 19.184L11.9422 20.736C11.3555 21.2053 10.6729 21.5627 9.89421 21.808C9.12621 22.0427 8.34754 22.16 7.55821 22.16ZM9.97421 20.464V16.272H11.9422V20.736L9.97421 20.464ZM18.3336 22.112C17.4589 22.112 16.6802 21.9253 15.9976 21.552C15.3149 21.168 14.7762 20.6453 14.3816 19.984C13.9869 19.3227 13.7896 18.5707 13.7896 17.728C13.7896 16.8747 13.9869 16.1227 14.3816 15.472C14.7762 14.8107 15.3149 14.2933 15.9976 13.92C16.6802 13.5467 17.4589 13.36 18.3336 13.36C19.2189 13.36 20.0029 13.5467 20.6856 13.92C21.3789 14.2933 21.9176 14.8053 22.3016 15.456C22.6962 16.1067 22.8936 16.864 22.8936 17.728C22.8936 18.5707 22.6962 19.3227 22.3016 19.984C21.9176 20.6453 21.3789 21.168 20.6856 21.552C20.0029 21.9253 19.2189 22.112 18.3336 22.112ZM18.3336 20.4C18.8242 20.4 19.2616 20.2933 19.6456 20.08C20.0296 19.8667 20.3282 19.5573 20.5416 19.152C20.7656 18.7467 20.8776 18.272 20.8776 17.728C20.8776 17.1733 20.7656 16.6987 20.5416 16.304C20.3282 15.8987 20.0296 15.5893 19.6456 15.376C19.2616 15.1627 18.8296 15.056 18.3496 15.056C17.8589 15.056 17.4216 15.1627 17.0376 15.376C16.6642 15.5893 16.3656 15.8987 16.1416 16.304C15.9176 16.6987 15.8056 17.1733 15.8056 17.728C15.8056 18.272 15.9176 18.7467 16.1416 19.152C16.3656 19.5573 16.6642 19.8667 17.0376 20.08C17.4216 20.2933 17.8536 20.4 18.3336 20.4ZM24.8061 22V10.128H26.8061V22H24.8061ZM33.0471 22.112C32.2257 22.112 31.4844 21.9307 30.8231 21.568C30.1724 21.1947 29.6604 20.6827 29.2871 20.032C28.9137 19.3813 28.7271 18.6133 28.7271 17.728C28.7271 16.8427 28.9137 16.0747 29.2871 15.424C29.6604 14.7733 30.1724 14.2667 30.8231 13.904C31.4844 13.5413 32.2257 13.36 33.0471 13.36C33.7617 13.36 34.4017 13.52 34.9671 13.84C35.5324 14.1493 35.9804 14.624 36.3111 15.264C36.6417 15.904 36.8071 16.7253 36.8071 17.728C36.8071 18.72 36.6471 19.5413 36.3271 20.192C36.0071 20.832 35.5644 21.312 34.9991 21.632C34.4337 21.952 33.7831 22.112 33.0471 22.112ZM33.2871 20.4C33.7671 20.4 34.1937 20.2933 34.5671 20.08C34.9511 19.8667 35.2551 19.5573 35.4791 19.152C35.7137 18.7467 35.8311 18.272 35.8311 17.728C35.8311 17.1733 35.7137 16.6987 35.4791 16.304C35.2551 15.8987 34.9511 15.5893 34.5671 15.376C34.1937 15.1627 33.7671 15.056 33.2871 15.056C32.8071 15.056 32.3751 15.1627 31.9911 15.376C31.6177 15.5893 31.3137 15.8987 31.0791 16.304C30.8551 16.6987 30.7431 17.1733 30.7431 17.728C30.7431 18.272 30.8551 18.7467 31.0791 19.152C31.3137 19.5573 31.6177 19.8667 31.9911 20.08C32.3751 20.2933 32.8071 20.4 33.2871 20.4ZM35.8791 22V19.984L35.9591 17.712L35.7991 15.44V10.128H37.7831V22H35.8791ZM44.4315 22.112C43.4821 22.112 42.6501 21.9253 41.9355 21.552C41.2315 21.168 40.6821 20.6453 40.2875 19.984C39.9035 19.3227 39.7115 18.5707 39.7115 17.728C39.7115 16.8747 39.8981 16.1227 40.2715 15.472C40.6555 14.8107 41.1781 14.2933 41.8395 13.92C42.5115 13.5467 43.2741 13.36 44.1275 13.36C44.9595 13.36 45.7008 13.5413 46.3515 13.904C47.0021 14.2667 47.5141 14.7787 47.8875 15.44C48.2608 16.1013 48.4475 16.88 48.4475 17.776C48.4475 17.8613 48.4421 17.9573 48.4315 18.064C48.4315 18.1707 48.4261 18.272 48.4155 18.368H41.2955V17.04H47.3595L46.5755 17.456C46.5861 16.9653 46.4848 16.5333 46.2715 16.16C46.0581 15.7867 45.7648 15.4933 45.3915 15.28C45.0288 15.0667 44.6075 14.96 44.1275 14.96C43.6368 14.96 43.2048 15.0667 42.8315 15.28C42.4688 15.4933 42.1808 15.792 41.9675 16.176C41.7648 16.5493 41.6635 16.992 41.6635 17.504V17.824C41.6635 18.336 41.7808 18.7893 42.0155 19.184C42.2501 19.5787 42.5808 19.8827 43.0075 20.096C43.4341 20.3093 43.9248 20.416 44.4795 20.416C44.9595 20.416 45.3915 20.3413 45.7755 20.192C46.1595 20.0427 46.5008 19.808 46.7995 19.488L47.8715 20.72C47.4875 21.168 47.0021 21.5147 46.4155 21.76C45.8395 21.9947 45.1781 22.112 44.4315 22.112ZM55.2166 13.36C55.8992 13.36 56.5072 13.4933 57.0406 13.76C57.5846 14.0267 58.0112 14.4373 58.3206 14.992C58.6299 15.536 58.7846 16.24 58.7846 17.104V22H56.7846V17.36C56.7846 16.6027 56.6032 16.0373 56.2406 15.664C55.8886 15.2907 55.3926 15.104 54.7526 15.104C54.2832 15.104 53.8672 15.2 53.5046 15.392C53.1419 15.584 52.8592 15.872 52.6566 16.256C52.4646 16.6293 52.3686 17.104 52.3686 17.68V22H50.3686V13.456H52.2726V15.76L51.9366 15.056C52.2352 14.512 52.6672 14.096 53.2326 13.808C53.8086 13.5093 54.4699 13.36 55.2166 13.36ZM67.8556 15.456H73.4236V17.168H67.8556V15.456ZM68.0156 20.256H74.3356V22H65.9356V10.8H74.1116V12.544H68.0156V20.256ZM81.6482 22V20.272L81.5362 19.904V16.88C81.5362 16.2933 81.3602 15.84 81.0082 15.52C80.6562 15.1893 80.1229 15.024 79.4082 15.024C78.9282 15.024 78.4535 15.0987 77.9842 15.248C77.5255 15.3973 77.1362 15.6053 76.8162 15.872L76.0322 14.416C76.4909 14.064 77.0349 13.8027 77.6642 13.632C78.3042 13.4507 78.9655 13.36 79.6482 13.36C80.8855 13.36 81.8402 13.6587 82.5122 14.256C83.1949 14.8427 83.5362 15.7547 83.5362 16.992V22H81.6482ZM78.9602 22.112C78.3202 22.112 77.7602 22.0053 77.2802 21.792C76.8002 21.568 76.4269 21.264 76.1602 20.88C75.9042 20.4853 75.7762 20.0427 75.7762 19.552C75.7762 19.072 75.8882 18.64 76.1122 18.256C76.3469 17.872 76.7255 17.568 77.2482 17.344C77.7709 17.12 78.4642 17.008 79.3282 17.008H81.8082V18.336H79.4722C78.7895 18.336 78.3309 18.448 78.0962 18.672C77.8615 18.8853 77.7442 19.152 77.7442 19.472C77.7442 19.8347 77.8882 20.1227 78.1762 20.336C78.4642 20.5493 78.8642 20.656 79.3762 20.656C79.8669 20.656 80.3042 20.544 80.6882 20.32C81.0829 20.096 81.3655 19.7653 81.5362 19.328L81.8722 20.528C81.6802 21.0293 81.3335 21.4187 80.8322 21.696C80.3415 21.9733 79.7175 22.112 78.9602 22.112ZM89.9906 25.216C89.2012 25.216 88.4279 25.1093 87.6706 24.896C86.9239 24.6933 86.3106 24.3947 85.8306 24L86.7266 22.496C87.0999 22.8053 87.5692 23.0507 88.1346 23.232C88.7106 23.424 89.2919 23.52 89.8786 23.52C90.8172 23.52 91.5052 23.3013 91.9426 22.864C92.3799 22.4373 92.5986 21.792 92.5986 20.928V19.408L92.7586 17.472L92.6946 15.536V13.456H94.5986V20.704C94.5986 22.2507 94.2039 23.3867 93.4146 24.112C92.6252 24.848 91.4839 25.216 89.9906 25.216ZM89.7346 21.616C88.9239 21.616 88.1879 21.4453 87.5266 21.104C86.8759 20.752 86.3586 20.2667 85.9746 19.648C85.6012 19.0293 85.4146 18.304 85.4146 17.472C85.4146 16.6507 85.6012 15.9307 85.9746 15.312C86.3586 14.6933 86.8759 14.2133 87.5266 13.872C88.1879 13.5307 88.9239 13.36 89.7346 13.36C90.4599 13.36 91.1106 13.504 91.6866 13.792C92.2626 14.08 92.7212 14.528 93.0626 15.136C93.4146 15.744 93.5906 16.5227 93.5906 17.472C93.5906 18.4213 93.4146 19.2053 93.0626 19.824C92.7212 20.432 92.2626 20.8853 91.6866 21.184C91.1106 21.472 90.4599 21.616 89.7346 21.616ZM90.0386 19.92C90.5399 19.92 90.9879 19.8187 91.3826 19.616C91.7772 19.4027 92.0812 19.1147 92.2946 18.752C92.5186 18.3787 92.6306 17.952 92.6306 17.472C92.6306 16.992 92.5186 16.5707 92.2946 16.208C92.0812 15.8347 91.7772 15.552 91.3826 15.36C90.9879 15.1573 90.5399 15.056 90.0386 15.056C89.5372 15.056 89.0839 15.1573 88.6786 15.36C88.2839 15.552 87.9746 15.8347 87.7506 16.208C87.5372 16.5707 87.4306 16.992 87.4306 17.472C87.4306 17.952 87.5372 18.3787 87.7506 18.752C87.9746 19.1147 88.2839 19.4027 88.6786 19.616C89.0839 19.8187 89.5372 19.92 90.0386 19.92ZM97.228 22V10.128H99.228V22H97.228ZM105.869 22.112C104.92 22.112 104.088 21.9253 103.373 21.552C102.669 21.168 102.12 20.6453 101.725 19.984C101.341 19.3227 101.149 18.5707 101.149 17.728C101.149 16.8747 101.336 16.1227 101.709 15.472C102.093 14.8107 102.616 14.2933 103.277 13.92C103.949 13.5467 104.712 13.36 105.565 13.36C106.397 13.36 107.138 13.5413 107.789 13.904C108.44 14.2667 108.952 14.7787 109.325 15.44C109.698 16.1013 109.885 16.88 109.885 17.776C109.885 17.8613 109.88 17.9573 109.869 18.064C109.869 18.1707 109.864 18.272 109.853 18.368H102.733V17.04H108.797L108.013 17.456C108.024 16.9653 107.922 16.5333 107.709 16.16C107.496 15.7867 107.202 15.4933 106.829 15.28C106.466 15.0667 106.045 14.96 105.565 14.96C105.074 14.96 104.642 15.0667 104.269 15.28C103.906 15.4933 103.618 15.792 103.405 16.176C103.202 16.5493 103.101 16.992 103.101 17.504V17.824C103.101 18.336 103.218 18.7893 103.453 19.184C103.688 19.5787 104.018 19.8827 104.445 20.096C104.872 20.3093 105.362 20.416 105.917 20.416C106.397 20.416 106.829 20.3413 107.213 20.192C107.597 20.0427 107.938 19.808 108.237 19.488L109.309 20.72C108.925 21.168 108.44 21.5147 107.853 21.76C107.277 21.9947 106.616 22.112 105.869 22.112Z"/>
</mask>
<path d="M7.55821 22.16C6.68354 22.16 5.8782 22.0213 5.1422 21.744C4.41687 21.456 3.7822 21.056 3.2382 20.544C2.6942 20.0213 2.27287 19.408 1.9742 18.704C1.67554 18 1.5262 17.232 1.5262 16.4C1.5262 15.568 1.67554 14.8 1.9742 14.096C2.27287 13.392 2.6942 12.784 3.2382 12.272C3.79287 11.7493 4.4382 11.3493 5.1742 11.072C5.9102 10.784 6.71554 10.64 7.5902 10.64C8.53954 10.64 9.39287 10.7947 10.1502 11.104C10.9182 11.4133 11.5635 11.8667 12.0862 12.464L10.7742 13.744C10.3369 13.3067 9.86221 12.9867 9.35021 12.784C8.84887 12.5707 8.29421 12.464 7.6862 12.464C7.09954 12.464 6.55554 12.56 6.0542 12.752C5.55287 12.944 5.12087 13.216 4.7582 13.568C4.39554 13.92 4.11287 14.336 3.9102 14.816C3.7182 15.296 3.6222 15.824 3.6222 16.4C3.6222 16.9653 3.7182 17.488 3.9102 17.968C4.11287 18.448 4.39554 18.8693 4.7582 19.232C5.12087 19.584 5.54754 19.856 6.0382 20.048C6.52887 20.24 7.07287 20.336 7.67021 20.336C8.22487 20.336 8.7582 20.2507 9.2702 20.08C9.79287 19.8987 10.2889 19.6 10.7582 19.184L11.9422 20.736C11.3555 21.2053 10.6729 21.5627 9.89421 21.808C9.12621 22.0427 8.34754 22.16 7.55821 22.16ZM9.97421 20.464V16.272H11.9422V20.736L9.97421 20.464ZM18.3336 22.112C17.4589 22.112 16.6802 21.9253 15.9976 21.552C15.3149 21.168 14.7762 20.6453 14.3816 19.984C13.9869 19.3227 13.7896 18.5707 13.7896 17.728C13.7896 16.8747 13.9869 16.1227 14.3816 15.472C14.7762 14.8107 15.3149 14.2933 15.9976 13.92C16.6802 13.5467 17.4589 13.36 18.3336 13.36C19.2189 13.36 20.0029 13.5467 20.6856 13.92C21.3789 14.2933 21.9176 14.8053 22.3016 15.456C22.6962 16.1067 22.8936 16.864 22.8936 17.728C22.8936 18.5707 22.6962 19.3227 22.3016 19.984C21.9176 20.6453 21.3789 21.168 20.6856 21.552C20.0029 21.9253 19.2189 22.112 18.3336 22.112ZM18.3336 20.4C18.8242 20.4 19.2616 20.2933 19.6456 20.08C20.0296 19.8667 20.3282 19.5573 20.5416 19.152C20.7656 18.7467 20.8776 18.272 20.8776 17.728C20.8776 17.1733 20.7656 16.6987 20.5416 16.304C20.3282 15.8987 20.0296 15.5893 19.6456 15.376C19.2616 15.1627 18.8296 15.056 18.3496 15.056C17.8589 15.056 17.4216 15.1627 17.0376 15.376C16.6642 15.5893 16.3656 15.8987 16.1416 16.304C15.9176 16.6987 15.8056 17.1733 15.8056 17.728C15.8056 18.272 15.9176 18.7467 16.1416 19.152C16.3656 19.5573 16.6642 19.8667 17.0376 20.08C17.4216 20.2933 17.8536 20.4 18.3336 20.4ZM24.8061 22V10.128H26.8061V22H24.8061ZM33.0471 22.112C32.2257 22.112 31.4844 21.9307 30.8231 21.568C30.1724 21.1947 29.6604 20.6827 29.2871 20.032C28.9137 19.3813 28.7271 18.6133 28.7271 17.728C28.7271 16.8427 28.9137 16.0747 29.2871 15.424C29.6604 14.7733 30.1724 14.2667 30.8231 13.904C31.4844 13.5413 32.2257 13.36 33.0471 13.36C33.7617 13.36 34.4017 13.52 34.9671 13.84C35.5324 14.1493 35.9804 14.624 36.3111 15.264C36.6417 15.904 36.8071 16.7253 36.8071 17.728C36.8071 18.72 36.6471 19.5413 36.3271 20.192C36.0071 20.832 35.5644 21.312 34.9991 21.632C34.4337 21.952 33.7831 22.112 33.0471 22.112ZM33.2871 20.4C33.7671 20.4 34.1937 20.2933 34.5671 20.08C34.9511 19.8667 35.2551 19.5573 35.4791 19.152C35.7137 18.7467 35.8311 18.272 35.8311 17.728C35.8311 17.1733 35.7137 16.6987 35.4791 16.304C35.2551 15.8987 34.9511 15.5893 34.5671 15.376C34.1937 15.1627 33.7671 15.056 33.2871 15.056C32.8071 15.056 32.3751 15.1627 31.9911 15.376C31.6177 15.5893 31.3137 15.8987 31.0791 16.304C30.8551 16.6987 30.7431 17.1733 30.7431 17.728C30.7431 18.272 30.8551 18.7467 31.0791 19.152C31.3137 19.5573 31.6177 19.8667 31.9911 20.08C32.3751 20.2933 32.8071 20.4 33.2871 20.4ZM35.8791 22V19.984L35.9591 17.712L35.7991 15.44V10.128H37.7831V22H35.8791ZM44.4315 22.112C43.4821 22.112 42.6501 21.9253 41.9355 21.552C41.2315 21.168 40.6821 20.6453 40.2875 19.984C39.9035 19.3227 39.7115 18.5707 39.7115 17.728C39.7115 16.8747 39.8981 16.1227 40.2715 15.472C40.6555 14.8107 41.1781 14.2933 41.8395 13.92C42.5115 13.5467 43.2741 13.36 44.1275 13.36C44.9595 13.36 45.7008 13.5413 46.3515 13.904C47.0021 14.2667 47.5141 14.7787 47.8875 15.44C48.2608 16.1013 48.4475 16.88 48.4475 17.776C48.4475 17.8613 48.4421 17.9573 48.4315 18.064C48.4315 18.1707 48.4261 18.272 48.4155 18.368H41.2955V17.04H47.3595L46.5755 17.456C46.5861 16.9653 46.4848 16.5333 46.2715 16.16C46.0581 15.7867 45.7648 15.4933 45.3915 15.28C45.0288 15.0667 44.6075 14.96 44.1275 14.96C43.6368 14.96 43.2048 15.0667 42.8315 15.28C42.4688 15.4933 42.1808 15.792 41.9675 16.176C41.7648 16.5493 41.6635 16.992 41.6635 17.504V17.824C41.6635 18.336 41.7808 18.7893 42.0155 19.184C42.2501 19.5787 42.5808 19.8827 43.0075 20.096C43.4341 20.3093 43.9248 20.416 44.4795 20.416C44.9595 20.416 45.3915 20.3413 45.7755 20.192C46.1595 20.0427 46.5008 19.808 46.7995 19.488L47.8715 20.72C47.4875 21.168 47.0021 21.5147 46.4155 21.76C45.8395 21.9947 45.1781 22.112 44.4315 22.112ZM55.2166 13.36C55.8992 13.36 56.5072 13.4933 57.0406 13.76C57.5846 14.0267 58.0112 14.4373 58.3206 14.992C58.6299 15.536 58.7846 16.24 58.7846 17.104V22H56.7846V17.36C56.7846 16.6027 56.6032 16.0373 56.2406 15.664C55.8886 15.2907 55.3926 15.104 54.7526 15.104C54.2832 15.104 53.8672 15.2 53.5046 15.392C53.1419 15.584 52.8592 15.872 52.6566 16.256C52.4646 16.6293 52.3686 17.104 52.3686 17.68V22H50.3686V13.456H52.2726V15.76L51.9366 15.056C52.2352 14.512 52.6672 14.096 53.2326 13.808C53.8086 13.5093 54.4699 13.36 55.2166 13.36ZM67.8556 15.456H73.4236V17.168H67.8556V15.456ZM68.0156 20.256H74.3356V22H65.9356V10.8H74.1116V12.544H68.0156V20.256ZM81.6482 22V20.272L81.5362 19.904V16.88C81.5362 16.2933 81.3602 15.84 81.0082 15.52C80.6562 15.1893 80.1229 15.024 79.4082 15.024C78.9282 15.024 78.4535 15.0987 77.9842 15.248C77.5255 15.3973 77.1362 15.6053 76.8162 15.872L76.0322 14.416C76.4909 14.064 77.0349 13.8027 77.6642 13.632C78.3042 13.4507 78.9655 13.36 79.6482 13.36C80.8855 13.36 81.8402 13.6587 82.5122 14.256C83.1949 14.8427 83.5362 15.7547 83.5362 16.992V22H81.6482ZM78.9602 22.112C78.3202 22.112 77.7602 22.0053 77.2802 21.792C76.8002 21.568 76.4269 21.264 76.1602 20.88C75.9042 20.4853 75.7762 20.0427 75.7762 19.552C75.7762 19.072 75.8882 18.64 76.1122 18.256C76.3469 17.872 76.7255 17.568 77.2482 17.344C77.7709 17.12 78.4642 17.008 79.3282 17.008H81.8082V18.336H79.4722C78.7895 18.336 78.3309 18.448 78.0962 18.672C77.8615 18.8853 77.7442 19.152 77.7442 19.472C77.7442 19.8347 77.8882 20.1227 78.1762 20.336C78.4642 20.5493 78.8642 20.656 79.3762 20.656C79.8669 20.656 80.3042 20.544 80.6882 20.32C81.0829 20.096 81.3655 19.7653 81.5362 19.328L81.8722 20.528C81.6802 21.0293 81.3335 21.4187 80.8322 21.696C80.3415 21.9733 79.7175 22.112 78.9602 22.112ZM89.9906 25.216C89.2012 25.216 88.4279 25.1093 87.6706 24.896C86.9239 24.6933 86.3106 24.3947 85.8306 24L86.7266 22.496C87.0999 22.8053 87.5692 23.0507 88.1346 23.232C88.7106 23.424 89.2919 23.52 89.8786 23.52C90.8172 23.52 91.5052 23.3013 91.9426 22.864C92.3799 22.4373 92.5986 21.792 92.5986 20.928V19.408L92.7586 17.472L92.6946 15.536V13.456H94.5986V20.704C94.5986 22.2507 94.2039 23.3867 93.4146 24.112C92.6252 24.848 91.4839 25.216 89.9906 25.216ZM89.7346 21.616C88.9239 21.616 88.1879 21.4453 87.5266 21.104C86.8759 20.752 86.3586 20.2667 85.9746 19.648C85.6012 19.0293 85.4146 18.304 85.4146 17.472C85.4146 16.6507 85.6012 15.9307 85.9746 15.312C86.3586 14.6933 86.8759 14.2133 87.5266 13.872C88.1879 13.5307 88.9239 13.36 89.7346 13.36C90.4599 13.36 91.1106 13.504 91.6866 13.792C92.2626 14.08 92.7212 14.528 93.0626 15.136C93.4146 15.744 93.5906 16.5227 93.5906 17.472C93.5906 18.4213 93.4146 19.2053 93.0626 19.824C92.7212 20.432 92.2626 20.8853 91.6866 21.184C91.1106 21.472 90.4599 21.616 89.7346 21.616ZM90.0386 19.92C90.5399 19.92 90.9879 19.8187 91.3826 19.616C91.7772 19.4027 92.0812 19.1147 92.2946 18.752C92.5186 18.3787 92.6306 17.952 92.6306 17.472C92.6306 16.992 92.5186 16.5707 92.2946 16.208C92.0812 15.8347 91.7772 15.552 91.3826 15.36C90.9879 15.1573 90.5399 15.056 90.0386 15.056C89.5372 15.056 89.0839 15.1573 88.6786 15.36C88.2839 15.552 87.9746 15.8347 87.7506 16.208C87.5372 16.5707 87.4306 16.992 87.4306 17.472C87.4306 17.952 87.5372 18.3787 87.7506 18.752C87.9746 19.1147 88.2839 19.4027 88.6786 19.616C89.0839 19.8187 89.5372 19.92 90.0386 19.92ZM97.228 22V10.128H99.228V22H97.228ZM105.869 22.112C104.92 22.112 104.088 21.9253 103.373 21.552C102.669 21.168 102.12 20.6453 101.725 19.984C101.341 19.3227 101.149 18.5707 101.149 17.728C101.149 16.8747 101.336 16.1227 101.709 15.472C102.093 14.8107 102.616 14.2933 103.277 13.92C103.949 13.5467 104.712 13.36 105.565 13.36C106.397 13.36 107.138 13.5413 107.789 13.904C108.44 14.2667 108.952 14.7787 109.325 15.44C109.698 16.1013 109.885 16.88 109.885 17.776C109.885 17.8613 109.88 17.9573 109.869 18.064C109.869 18.1707 109.864 18.272 109.853 18.368H102.733V17.04H108.797L108.013 17.456C108.024 16.9653 107.922 16.5333 107.709 16.16C107.496 15.7867 107.202 15.4933 106.829 15.28C106.466 15.0667 106.045 14.96 105.565 14.96C105.074 14.96 104.642 15.0667 104.269 15.28C103.906 15.4933 103.618 15.792 103.405 16.176C103.202 16.5493 103.101 16.992 103.101 17.504V17.824C103.101 18.336 103.218 18.7893 103.453 19.184C103.688 19.5787 104.018 19.8827 104.445 20.096C104.872 20.3093 105.362 20.416 105.917 20.416C106.397 20.416 106.829 20.3413 107.213 20.192C107.597 20.0427 107.938 19.808 108.237 19.488L109.309 20.72C108.925 21.168 108.44 21.5147 107.853 21.76C107.277 21.9947 106.616 22.112 105.869 22.112Z" fill="#DBBC57"/>
<path d="M5.1422 21.744L5.1053 21.837L5.10694 21.8376L5.1422 21.744ZM3.2382 20.544L3.16892 20.6161L3.16967 20.6168L3.2382 20.544ZM1.9742 18.704L2.06626 18.6649L2.06626 18.6649L1.9742 18.704ZM1.9742 14.096L2.06626 14.1351L2.06626 14.1351L1.9742 14.096ZM3.2382 12.272L3.30674 12.3448L3.30678 12.3448L3.2382 12.272ZM5.1742 11.072L5.20947 11.1656L5.21064 11.1651L5.1742 11.072ZM10.1502 11.104L10.1124 11.1966L10.1128 11.1968L10.1502 11.104ZM12.0862 12.464L12.156 12.5356L12.2238 12.4694L12.1615 12.3981L12.0862 12.464ZM10.7742 13.744L10.7035 13.8147L10.7733 13.8846L10.844 13.8156L10.7742 13.744ZM9.35021 12.784L9.31104 12.876L9.3134 12.877L9.35021 12.784ZM6.0542 12.752L6.08997 12.8454L6.08997 12.8454L6.0542 12.752ZM3.9102 14.816L3.81806 14.7771L3.81736 14.7789L3.9102 14.816ZM3.9102 17.968L3.81734 18.0051L3.81808 18.0069L3.9102 17.968ZM4.7582 19.232L4.68749 19.3027L4.68856 19.3038L4.7582 19.232ZM6.0382 20.048L6.07464 19.9549L6.07464 19.9549L6.0382 20.048ZM9.2702 20.08L9.30183 20.1749L9.30298 20.1745L9.2702 20.08ZM10.7582 19.184L10.8377 19.1233L10.7724 19.0378L10.6919 19.1092L10.7582 19.184ZM11.9422 20.736L12.0047 20.8141L12.081 20.753L12.0217 20.6753L11.9422 20.736ZM9.89421 21.808L9.92343 21.9036L9.92426 21.9034L9.89421 21.808ZM9.97421 20.464H9.87421V20.5511L9.96051 20.5631L9.97421 20.464ZM9.97421 16.272V16.172H9.87421V16.272H9.97421ZM11.9422 16.272H12.0422V16.172H11.9422V16.272ZM11.9422 20.736L11.9285 20.8351L12.0422 20.8508V20.736H11.9422ZM7.55821 22.16V22.06C6.69424 22.06 5.901 21.9231 5.17747 21.6504L5.1422 21.744L5.10694 21.8376C5.85541 22.1196 6.67284 22.26 7.55821 22.26V22.16ZM5.1422 21.744L5.17911 21.6511C4.46496 21.3675 3.84115 20.9742 3.30674 20.4712L3.2382 20.544L3.16967 20.6168C3.72326 21.1378 4.36878 21.5445 5.1053 21.8369L5.1422 21.744ZM3.2382 20.544L3.30749 20.4719C2.77337 19.9587 2.35972 19.3567 2.06626 18.6649L1.9742 18.704L1.88215 18.7431C2.18602 19.4593 2.61504 20.0839 3.16892 20.6161L3.2382 20.544ZM1.9742 18.704L2.06626 18.6649C1.77328 17.9743 1.6262 17.2198 1.6262 16.4H1.5262H1.4262C1.4262 17.2442 1.57779 18.0257 1.88215 18.7431L1.9742 18.704ZM1.5262 16.4H1.6262C1.6262 15.5802 1.77328 14.8257 2.06626 14.1351L1.9742 14.096L1.88215 14.0569C1.57779 14.7743 1.4262 15.5558 1.4262 16.4H1.5262ZM1.9742 14.096L2.06626 14.1351C2.35965 13.4435 2.77308 12.8471 3.30674 12.3448L3.2382 12.272L3.16967 12.1992C2.61533 12.7209 2.1861 13.3405 1.88215 14.0569L1.9742 14.096ZM3.2382 12.272L3.30678 12.3448C3.85152 11.8315 4.48543 11.4384 5.20947 11.1656L5.1742 11.072L5.13894 10.9784C4.39098 11.2603 3.73422 11.6672 3.16962 12.1992L3.2382 12.272ZM5.1742 11.072L5.21064 11.1651C5.93386 10.8821 6.72668 10.74 7.5902 10.74V10.64V10.54C6.7044 10.54 5.88655 10.6859 5.13776 10.9789L5.1742 11.072ZM7.5902 10.64V10.74C8.52863 10.74 9.36883 10.8929 10.1124 11.1966L10.1502 11.104L10.188 11.0114C9.41691 10.6965 8.55045 10.54 7.5902 10.54V10.64ZM10.1502 11.104L10.1128 11.1968C10.8669 11.5005 11.4991 11.9449 12.0109 12.5299L12.0862 12.464L12.1615 12.3981C11.628 11.7885 10.9695 11.3262 10.1876 11.0112L10.1502 11.104ZM12.0862 12.464L12.0164 12.3924L10.7044 13.6724L10.7742 13.744L10.844 13.8156L12.156 12.5356L12.0862 12.464ZM10.7742 13.744L10.8449 13.6733C10.3991 13.2275 9.91319 12.8993 9.38701 12.691L9.35021 12.784L9.3134 12.877C9.81122 13.074 10.2746 13.3858 10.7035 13.8147L10.7742 13.744ZM9.35021 12.784L9.38936 12.692C8.87429 12.4728 8.3061 12.364 7.6862 12.364V12.464V12.564C8.28231 12.564 8.82346 12.6685 9.31105 12.876L9.35021 12.784ZM7.6862 12.464V12.364C7.08845 12.364 6.53221 12.4619 6.01844 12.6586L6.0542 12.752L6.08997 12.8454C6.57887 12.6581 7.11063 12.564 7.6862 12.564V12.464ZM6.0542 12.752L6.01844 12.6586C5.50526 12.8551 5.06153 13.1342 4.68856 13.4962L4.7582 13.568L4.82785 13.6398C5.18021 13.2978 5.60048 13.0328 6.08997 12.8454L6.0542 12.752ZM4.7582 13.568L4.68856 13.4962C4.31597 13.8579 4.0258 14.2851 3.81808 14.7771L3.9102 14.816L4.00233 14.8549C4.19995 14.3869 4.4751 13.9821 4.82785 13.6398L4.7582 13.568ZM3.9102 14.816L3.81736 14.7789C3.62012 15.2719 3.5222 15.8127 3.5222 16.4H3.6222H3.7222C3.7222 15.8353 3.81629 15.3201 4.00305 14.8531L3.9102 14.816ZM3.6222 16.4H3.5222C3.5222 16.9769 3.62021 17.5123 3.81736 18.0051L3.9102 17.968L4.00305 17.9309C3.8162 17.4637 3.7222 16.9538 3.7222 16.4H3.6222ZM3.9102 17.968L3.81808 18.0069C4.02568 18.4986 4.31556 18.9308 4.68749 19.3027L4.7582 19.232L4.82892 19.1613C4.47552 18.8079 4.20006 18.3974 4.00233 17.9291L3.9102 17.968ZM4.7582 19.232L4.68856 19.3038C5.06117 19.6654 5.49926 19.9445 6.00176 20.1411L6.0382 20.048L6.07464 19.9549C5.59582 19.7675 5.18057 19.5026 4.82785 19.1602L4.7582 19.232ZM6.0382 20.048L6.00176 20.1411C6.50549 20.3382 7.06206 20.436 7.67021 20.436V20.336V20.236C7.08369 20.236 6.55225 20.1418 6.07464 19.9549L6.0382 20.048ZM7.67021 20.336V20.436C8.23532 20.436 8.77935 20.349 9.30183 20.1749L9.2702 20.08L9.23858 19.9851C8.73706 20.1523 8.21443 20.236 7.67021 20.236V20.336ZM9.2702 20.08L9.30298 20.1745C9.83955 19.9883 10.3467 19.6824 10.8245 19.2588L10.7582 19.184L10.6919 19.1092C10.231 19.5176 9.74619 19.809 9.23743 19.9855L9.2702 20.08ZM10.7582 19.184L10.6787 19.2447L11.8627 20.7967L11.9422 20.736L12.0217 20.6753L10.8377 19.1233L10.7582 19.184ZM11.9422 20.736L11.8797 20.6579C11.3035 21.1189 10.6321 21.4707 9.86415 21.7126L9.89421 21.808L9.92426 21.9034C10.7137 21.6547 11.4076 21.2918 12.0047 20.8141L11.9422 20.736ZM9.89421 21.808L9.86498 21.7124C9.10629 21.9442 8.33746 22.06 7.55821 22.06V22.16V22.26C8.35761 22.26 9.14612 22.1411 9.92343 21.9036L9.89421 21.808ZM9.97421 20.464H10.0742V16.272H9.97421H9.87421V20.464H9.97421ZM9.97421 16.272V16.372H11.9422V16.272V16.172H9.97421V16.272ZM11.9422 16.272H11.8422V20.736H11.9422H12.0422V16.272H11.9422ZM11.9422 20.736L11.9559 20.6369L9.9879 20.3649L9.97421 20.464L9.96051 20.5631L11.9285 20.8351L11.9422 20.736ZM15.9976 21.552L15.9486 21.6392L15.9496 21.6397L15.9976 21.552ZM14.3816 19.984L14.2957 20.0352L14.2957 20.0352L14.3816 19.984ZM14.3816 15.472L14.4671 15.5239L14.4675 15.5232L14.3816 15.472ZM15.9976 13.92L16.0456 14.0077L16.0456 14.0077L15.9976 13.92ZM20.6856 13.92L20.6376 14.0077L20.6382 14.008L20.6856 13.92ZM22.3016 15.456L22.2155 15.5068L22.2161 15.5079L22.3016 15.456ZM22.3016 19.984L22.2157 19.9328L22.2151 19.9338L22.3016 19.984ZM20.6856 21.552L20.7336 21.6397L20.734 21.6395L20.6856 21.552ZM19.6456 20.08L19.597 19.9926L19.597 19.9926L19.6456 20.08ZM20.5416 19.152L20.454 19.1036L20.4531 19.1054L20.5416 19.152ZM20.5416 16.304L20.453 16.3506L20.4546 16.3534L20.5416 16.304ZM19.6456 15.376L19.6941 15.2886L19.6941 15.2886L19.6456 15.376ZM17.0376 15.376L16.989 15.2886L16.988 15.2892L17.0376 15.376ZM16.1416 16.304L16.2286 16.3534L16.2291 16.3524L16.1416 16.304ZM16.1416 19.152L16.0541 19.2004L16.0541 19.2004L16.1416 19.152ZM17.0376 20.08L16.988 20.1668L16.989 20.1674L17.0376 20.08ZM18.3336 22.112V22.012C17.4736 22.012 16.7118 21.8286 16.0456 21.4643L15.9976 21.552L15.9496 21.6397C16.6487 22.0221 17.4443 22.212 18.3336 22.212V22.112ZM15.9976 21.552L16.0466 21.4648C15.3789 21.0892 14.853 20.5788 14.4675 19.9328L14.3816 19.984L14.2957 20.0352C14.6995 20.7118 15.251 21.2468 15.9486 21.6392L15.9976 21.552ZM14.3816 19.984L14.4675 19.9328C14.0829 19.2884 13.8896 18.5544 13.8896 17.728H13.7896H13.6896C13.6896 18.587 13.8909 19.357 14.2957 20.0352L14.3816 19.984ZM13.7896 17.728H13.8896C13.8896 16.8907 14.083 16.1571 14.4671 15.5239L14.3816 15.472L14.2961 15.4201C13.8908 16.0883 13.6896 16.8587 13.6896 17.728H13.7896ZM14.3816 15.472L14.4675 15.5232C14.8529 14.8774 15.3784 14.3726 16.0456 14.0077L15.9976 13.92L15.9496 13.8323C15.2514 14.2141 14.6996 14.7439 14.2957 15.4208L14.3816 15.472ZM15.9976 13.92L16.0456 14.0077C16.7118 13.6434 17.4736 13.46 18.3336 13.46V13.36V13.26C17.4443 13.26 16.6487 13.4499 15.9496 13.8323L15.9976 13.92ZM18.3336 13.36V13.46C19.2045 13.46 19.9716 13.6435 20.6376 14.0077L20.6856 13.92L20.7336 13.8323C20.0343 13.4498 19.2333 13.26 18.3336 13.26V13.36ZM20.6856 13.92L20.6382 14.008C21.3162 14.3731 21.8411 14.8725 22.2155 15.5068L22.3016 15.456L22.3877 15.4052C21.994 14.7381 21.4417 14.2135 20.733 13.832L20.6856 13.92ZM22.3016 15.456L22.2161 15.5079C22.6 16.1409 22.7936 16.8798 22.7936 17.728H22.8936H22.9936C22.9936 16.8482 22.7925 16.0725 22.3871 15.4041L22.3016 15.456ZM22.8936 17.728H22.7936C22.7936 18.5544 22.6003 19.2884 22.2157 19.9328L22.3016 19.984L22.3875 20.0352C22.7922 19.357 22.9936 18.587 22.9936 17.728H22.8936ZM22.3016 19.984L22.2151 19.9338C21.8405 20.5789 21.3153 21.0889 20.6371 21.4645L20.6856 21.552L20.734 21.6395C21.4426 21.2471 21.9946 20.7118 22.3881 20.0342L22.3016 19.984ZM20.6856 21.552L20.6376 21.4643C19.9716 21.8285 19.2045 22.012 18.3336 22.012V22.112V22.212C19.2333 22.212 20.0343 22.0222 20.7336 21.6397L20.6856 21.552ZM18.3336 20.4V20.5C18.8392 20.5 19.2936 20.3899 19.6941 20.1674L19.6456 20.08L19.597 19.9926C19.2295 20.1967 18.8093 20.3 18.3336 20.3V20.4ZM19.6456 20.08L19.6941 20.1674C20.0959 19.9442 20.4081 19.6203 20.6301 19.1986L20.5416 19.152L20.4531 19.1054C20.2484 19.4943 19.9633 19.7891 19.597 19.9926L19.6456 20.08ZM20.5416 19.152L20.6291 19.2004C20.8626 18.7778 20.9776 18.286 20.9776 17.728H20.8776H20.7776C20.7776 18.258 20.6685 18.7155 20.4541 19.1036L20.5416 19.152ZM20.8776 17.728H20.9776C20.9776 17.1599 20.8628 16.6674 20.6285 16.2546L20.5416 16.304L20.4546 16.3534C20.6684 16.73 20.7776 17.1868 20.7776 17.728H20.8776ZM20.5416 16.304L20.6301 16.2574C20.4081 15.8357 20.0959 15.5118 19.6941 15.2886L19.6456 15.376L19.597 15.4634C19.9633 15.6669 20.2484 15.9617 20.4531 16.3506L20.5416 16.304ZM19.6456 15.376L19.6941 15.2886C19.2939 15.0662 18.845 14.956 18.3496 14.956V15.056V15.156C18.8142 15.156 19.2292 15.2591 19.597 15.4634L19.6456 15.376ZM18.3496 15.056V14.956C17.8439 14.956 17.3895 15.0661 16.989 15.2886L17.0376 15.376L17.0861 15.4634C17.4536 15.2593 17.8739 15.156 18.3496 15.156V15.056ZM17.0376 15.376L16.988 15.2892C16.5975 15.5123 16.2862 15.8355 16.0541 16.2556L16.1416 16.304L16.2291 16.3524C16.4449 15.9618 16.731 15.6664 17.0872 15.4628L17.0376 15.376ZM16.1416 16.304L16.0546 16.2546C15.8204 16.6674 15.7056 17.1599 15.7056 17.728H15.8056H15.9056C15.9056 17.1868 16.0148 16.73 16.2285 16.3534L16.1416 16.304ZM15.8056 17.728H15.7056C15.7056 18.286 15.8205 18.7778 16.0541 19.2004L16.1416 19.152L16.2291 19.1036C16.0146 18.7155 15.9056 18.258 15.9056 17.728H15.8056ZM16.1416 19.152L16.0541 19.2004C16.2862 19.6205 16.5975 19.9437 16.988 20.1668L17.0376 20.08L17.0872 19.9932C16.731 19.7896 16.4449 19.4942 16.2291 19.1036L16.1416 19.152ZM17.0376 20.08L16.989 20.1674C17.3892 20.3898 17.8382 20.5 18.3336 20.5V20.4V20.3C17.869 20.3 17.4539 20.1969 17.0861 19.9926L17.0376 20.08ZM24.8061 22H24.7061V22.1H24.8061V22ZM24.8061 10.128V10.028H24.7061V10.128H24.8061ZM26.8061 10.128H26.9061V10.028H26.8061V10.128ZM26.8061 22V22.1H26.9061V22H26.8061ZM24.8061 22H24.9061V10.128H24.8061H24.7061V22H24.8061ZM24.8061 10.128V10.228H26.8061V10.128V10.028H24.8061V10.128ZM26.8061 10.128H26.7061V22H26.8061H26.9061V10.128H26.8061ZM26.8061 22V21.9H24.8061V22V22.1H26.8061V22ZM30.8231 21.568L30.7733 21.6548L30.775 21.6557L30.8231 21.568ZM29.2871 20.032L29.3738 19.9822L29.2871 20.032ZM29.2871 15.424L29.3738 15.4738L29.3738 15.4738L29.2871 15.424ZM30.8231 13.904L30.775 13.8163L30.7744 13.8167L30.8231 13.904ZM34.9671 13.84L34.9178 13.927L34.9191 13.9277L34.9671 13.84ZM36.3111 15.264L36.2222 15.3099L36.2222 15.3099L36.3111 15.264ZM36.3271 20.192L36.4165 20.2367L36.4168 20.2361L36.3271 20.192ZM34.9991 21.632L34.9498 21.545L34.9991 21.632ZM34.5671 20.08L34.5185 19.9926L34.5175 19.9932L34.5671 20.08ZM35.4791 19.152L35.3925 19.1019L35.3916 19.1036L35.4791 19.152ZM35.4791 16.304L35.3915 16.3524L35.3931 16.3551L35.4791 16.304ZM34.5671 15.376L34.5175 15.4628L34.5185 15.4634L34.5671 15.376ZM31.9911 15.376L31.9425 15.2886L31.9415 15.2892L31.9911 15.376ZM31.0791 16.304L30.9925 16.2539L30.9921 16.2546L31.0791 16.304ZM31.0791 19.152L30.9915 19.2004L30.9925 19.2021L31.0791 19.152ZM31.9911 20.08L31.9415 20.1668L31.9425 20.1674L31.9911 20.08ZM35.8791 22H35.7791V22.1H35.8791V22ZM35.8791 19.984L35.7791 19.9805V19.984H35.8791ZM35.9591 17.712L36.0596 17.7155L36.0588 17.705L35.9591 17.712ZM35.7991 15.44H35.6988L35.6993 15.447L35.7991 15.44ZM35.7991 10.128V10.028H35.6991V10.128H35.7991ZM37.7831 10.128H37.8831V10.028H37.7831V10.128ZM37.7831 22V22.1H37.8831V22H37.7831ZM33.0471 22.112V22.012C32.241 22.012 31.5165 21.8342 30.8712 21.4803L30.8231 21.568L30.775 21.6557C31.4524 22.0271 32.2105 22.212 33.0471 22.212V22.112ZM30.8231 21.568L30.8728 21.4813C30.2376 21.1168 29.7383 20.6175 29.3738 19.9822L29.2871 20.032L29.2003 20.0818C29.5825 20.7478 30.1073 21.2726 30.7733 21.6547L30.8231 21.568ZM29.2871 20.032L29.3738 19.9822C29.0106 19.3492 28.8271 18.599 28.8271 17.728H28.7271H28.6271C28.6271 18.6276 28.8169 19.4134 29.2003 20.0818L29.2871 20.032ZM28.7271 17.728H28.8271C28.8271 16.857 29.0106 16.1068 29.3738 15.4738L29.2871 15.424L29.2003 15.3742C28.8169 16.0426 28.6271 16.8284 28.6271 17.728H28.7271ZM29.2871 15.424L29.3738 15.4738C29.7382 14.8387 30.2371 14.3451 30.8718 13.9913L30.8231 13.904L30.7744 13.8167C30.1077 14.1882 29.5826 14.7079 29.2003 15.3742L29.2871 15.424ZM30.8231 13.904L30.8712 13.9917C31.5165 13.6378 32.241 13.46 33.0471 13.46V13.36V13.26C32.2105 13.26 31.4524 13.4449 30.775 13.8163L30.8231 13.904ZM33.0471 13.36V13.46C33.7463 13.46 34.369 13.6164 34.9178 13.927L34.9671 13.84L35.0163 13.753C34.4345 13.4236 33.7772 13.26 33.0471 13.26V13.36ZM34.9671 13.84L34.9191 13.9277C35.4649 14.2264 35.8996 14.6854 36.2222 15.3099L36.3111 15.264L36.3999 15.2181C36.0612 14.5626 35.5999 14.0723 35.0151 13.7523L34.9671 13.84ZM36.3111 15.264L36.2222 15.3099C36.5433 15.9313 36.7071 16.7354 36.7071 17.728H36.8071H36.9071C36.9071 16.7153 36.7402 15.8767 36.3999 15.2181L36.3111 15.264ZM36.8071 17.728H36.7071C36.7071 18.71 36.5486 19.515 36.2373 20.1479L36.3271 20.192L36.4168 20.2361C36.7456 19.5676 36.9071 18.73 36.9071 17.728H36.8071ZM36.3271 20.192L36.2376 20.1473C35.9256 20.7714 35.4961 21.2358 34.9498 21.545L34.9991 21.632L35.0483 21.719C35.6327 21.3882 36.0886 20.8926 36.4165 20.2367L36.3271 20.192ZM34.9991 21.632L34.9498 21.545C34.4014 21.8554 33.7681 22.012 33.0471 22.012V22.112V22.212C33.798 22.212 34.4661 22.0486 35.0483 21.719L34.9991 21.632ZM33.2871 20.4V20.5C33.7824 20.5 34.2266 20.3898 34.6167 20.1668L34.5671 20.08L34.5175 19.9932C34.1609 20.1969 33.7517 20.3 33.2871 20.3V20.4ZM34.5671 20.08L34.6156 20.1674C35.0169 19.9445 35.334 19.6212 35.5666 19.2004L35.4791 19.152L35.3916 19.1036C35.1761 19.4935 34.8852 19.7889 34.5185 19.9926L34.5671 20.08ZM35.4791 19.152L35.5656 19.2021C35.8104 18.7792 35.9311 18.2867 35.9311 17.728H35.8311H35.7311C35.7311 18.2573 35.6171 18.7141 35.3925 19.1019L35.4791 19.152ZM35.8311 17.728H35.9311C35.9311 17.1591 35.8106 16.666 35.565 16.2529L35.4791 16.304L35.3931 16.3551C35.6169 16.7314 35.7311 17.1876 35.7311 17.728H35.8311ZM35.4791 16.304L35.5666 16.2556C35.334 15.8348 35.0169 15.5115 34.6156 15.2886L34.5671 15.376L34.5185 15.4634C34.8852 15.6671 35.1761 15.9625 35.3916 16.3524L35.4791 16.304ZM34.5671 15.376L34.6167 15.2892C34.2266 15.0662 33.7824 14.956 33.2871 14.956V15.056V15.156C33.7517 15.156 34.1609 15.2591 34.5175 15.4628L34.5671 15.376ZM33.2871 15.056V14.956C32.7917 14.956 32.3427 15.0662 31.9425 15.2886L31.9911 15.376L32.0396 15.4634C32.4074 15.2591 32.8225 15.156 33.2871 15.156V15.056ZM31.9911 15.376L31.9415 15.2892C31.5514 15.512 31.2352 15.8347 30.9925 16.2539L31.0791 16.304L31.1656 16.3541C31.3923 15.9627 31.684 15.6666 32.0407 15.4628L31.9911 15.376ZM31.0791 16.304L30.9921 16.2546C30.7579 16.6674 30.6431 17.1599 30.6431 17.728H30.7431H30.8431C30.8431 17.1868 30.9523 16.73 31.166 16.3534L31.0791 16.304ZM30.7431 17.728H30.6431C30.6431 18.286 30.758 18.7778 30.9916 19.2004L31.0791 19.152L31.1666 19.1036C30.9521 18.7155 30.8431 18.258 30.8431 17.728H30.7431ZM31.0791 19.152L30.9925 19.2021C31.2352 19.6213 31.5514 19.944 31.9415 20.1668L31.9911 20.08L32.0407 19.9932C31.684 19.7894 31.3923 19.4933 31.1656 19.1019L31.0791 19.152ZM31.9911 20.08L31.9425 20.1674C32.3427 20.3898 32.7917 20.5 33.2871 20.5V20.4V20.3C32.8225 20.3 32.4074 20.1969 32.0396 19.9926L31.9911 20.08ZM35.8791 22H35.9791V19.984H35.8791H35.7791V22H35.8791ZM35.8791 19.984L35.979 19.9875L36.059 17.7155L35.9591 17.712L35.8591 17.7085L35.7791 19.9805L35.8791 19.984ZM35.9591 17.712L36.0588 17.705L35.8988 15.433L35.7991 15.44L35.6993 15.447L35.8593 17.719L35.9591 17.712ZM35.7991 15.44H35.8991V10.128H35.7991H35.6991V15.44H35.7991ZM35.7991 10.128V10.228H37.7831V10.128V10.028H35.7991V10.128ZM37.7831 10.128H37.6831V22H37.7831H37.8831V10.128H37.7831ZM37.7831 22V21.9H35.8791V22V22.1H37.7831V22ZM41.9355 21.552L41.8876 21.6398L41.8892 21.6406L41.9355 21.552ZM40.2875 19.984L40.201 20.0342L40.2016 20.0352L40.2875 19.984ZM40.2715 15.472L40.185 15.4218L40.1847 15.4222L40.2715 15.472ZM41.8395 13.92L41.7909 13.8326L41.7903 13.8329L41.8395 13.92ZM46.3515 13.904L46.4001 13.8167L46.4001 13.8167L46.3515 13.904ZM48.4315 18.064L48.3315 18.054V18.064H48.4315ZM48.4155 18.368V18.468H48.505L48.5148 18.379L48.4155 18.368ZM41.2955 18.368H41.1955V18.468H41.2955V18.368ZM41.2955 17.04V16.94H41.1955V17.04H41.2955ZM47.3595 17.04L47.4063 17.1283L47.3595 16.94V17.04ZM46.5755 17.456L46.4755 17.4538L46.4718 17.6242L46.6223 17.5443L46.5755 17.456ZM46.2715 16.16L46.1846 16.2096L46.1846 16.2096L46.2715 16.16ZM45.3915 15.28L45.3407 15.3662L45.3418 15.3668L45.3915 15.28ZM42.8315 15.28L42.7818 15.1932L42.7808 15.1938L42.8315 15.28ZM41.9675 16.176L41.88 16.1274L41.8796 16.1283L41.9675 16.176ZM43.0075 20.096L42.9627 20.1854L42.9627 20.1854L43.0075 20.096ZM45.7755 20.192L45.8117 20.2852L45.8117 20.2852L45.7755 20.192ZM46.7995 19.488L46.8749 19.4224L46.8021 19.3387L46.7263 19.4198L46.7995 19.488ZM47.8715 20.72L47.9474 20.7851L48.0036 20.7195L47.9469 20.6544L47.8715 20.72ZM46.4155 21.76L46.4532 21.8526L46.454 21.8523L46.4155 21.76ZM44.4315 22.112V22.012C43.4954 22.012 42.6798 21.828 41.9818 21.4634L41.9355 21.552L41.8892 21.6406C42.6204 22.0227 43.4689 22.212 44.4315 22.212V22.112ZM41.9355 21.552L41.9833 21.4642C41.2944 21.0884 40.7584 20.5781 40.3733 19.9328L40.2875 19.984L40.2016 20.0352C40.6058 20.7126 41.1685 21.2476 41.8876 21.6398L41.9355 21.552ZM40.2875 19.984L40.3739 19.9338C39.9997 19.2892 39.8115 18.5549 39.8115 17.728H39.7115H39.6115C39.6115 18.5865 39.8072 19.3561 40.201 20.0342L40.2875 19.984ZM39.7115 17.728H39.8115C39.8115 16.8897 39.9947 16.1553 40.3582 15.5218L40.2715 15.472L40.1847 15.4222C39.8016 16.09 39.6115 16.8596 39.6115 17.728H39.7115ZM40.2715 15.472L40.3579 15.5222C40.7331 14.8762 41.2429 14.3716 41.8886 14.0071L41.8395 13.92L41.7903 13.8329C41.1133 14.2151 40.5778 14.7452 40.185 15.4218L40.2715 15.472ZM41.8395 13.92L41.888 14.0074C42.5436 13.6432 43.2892 13.46 44.1275 13.46V13.36V13.26C43.259 13.26 42.4793 13.4501 41.7909 13.8326L41.8395 13.92ZM44.1275 13.36V13.46C44.9444 13.46 45.6687 13.6379 46.3028 13.9913L46.3515 13.904L46.4001 13.8167C45.7329 13.4448 44.9745 13.26 44.1275 13.26V13.36ZM46.3515 13.904L46.3028 13.9913C46.937 14.3449 47.4359 14.8435 47.8004 15.4892L47.8875 15.44L47.9745 15.3908C47.5923 14.7138 47.0672 14.1885 46.4001 13.8167L46.3515 13.904ZM47.8875 15.44L47.8004 15.4892C48.1638 16.133 48.3475 16.8941 48.3475 17.776H48.4475H48.5475C48.5475 16.8659 48.3577 16.0697 47.9745 15.3908L47.8875 15.44ZM48.4475 17.776H48.3475C48.3475 17.8573 48.3424 17.9499 48.332 18.054L48.4315 18.064L48.531 18.074C48.5419 17.9648 48.5475 17.8654 48.5475 17.776H48.4475ZM48.4315 18.064H48.3315C48.3315 18.1674 48.3263 18.265 48.3161 18.357L48.4155 18.368L48.5148 18.379C48.526 18.279 48.5315 18.174 48.5315 18.064H48.4315ZM48.4155 18.368V18.268H41.2955V18.368V18.468H48.4155V18.368ZM41.2955 18.368H41.3955V17.04H41.2955H41.1955V18.368H41.2955ZM41.2955 17.04V17.14H47.3595V17.04V16.94H41.2955V17.04ZM47.3595 17.04L47.3126 16.9517L46.5286 17.3677L46.5755 17.456L46.6223 17.5443L47.4063 17.1283L47.3595 17.04ZM46.5755 17.456L46.6754 17.4582C46.6864 16.952 46.5818 16.5016 46.3583 16.1104L46.2715 16.16L46.1846 16.2096C46.3877 16.5651 46.4858 16.9787 46.4755 17.4538L46.5755 17.456ZM46.2715 16.16L46.3583 16.1104C46.1361 15.7215 45.8299 15.4154 45.4411 15.1932L45.3915 15.28L45.3418 15.3668C45.6997 15.5713 45.9802 15.8518 46.1846 16.2096L46.2715 16.16ZM45.3915 15.28L45.4422 15.1938C45.0621 14.9702 44.6227 14.86 44.1275 14.86V14.96V15.06C44.5922 15.06 44.9955 15.1631 45.3408 15.3662L45.3915 15.28ZM44.1275 14.96V14.86C43.6219 14.86 43.1723 14.97 42.7818 15.1932L42.8315 15.28L42.8811 15.3668C43.2373 15.1633 43.6517 15.06 44.1275 15.06V14.96ZM42.8315 15.28L42.7808 15.1938C42.402 15.4166 42.1016 15.7286 41.88 16.1274L41.9675 16.176L42.0549 16.2246C42.2599 15.8554 42.5356 15.5701 42.8822 15.3662L42.8315 15.28ZM41.9675 16.176L41.8796 16.1283C41.6675 16.519 41.5635 16.9787 41.5635 17.504H41.6635H41.7635C41.7635 17.0053 41.8621 16.5797 42.0553 16.2237L41.9675 16.176ZM41.6635 17.504H41.5635V17.824H41.6635H41.7635V17.504H41.6635ZM41.6635 17.824H41.5635C41.5635 18.3519 41.6846 18.8232 41.9295 19.2351L42.0155 19.184L42.1014 19.1329C41.877 18.7554 41.7635 18.3201 41.7635 17.824H41.6635ZM42.0155 19.184L41.9295 19.2351C42.1744 19.6469 42.5196 19.9639 42.9627 20.1854L43.0075 20.096L43.0522 20.0066C42.6419 19.8014 42.3259 19.5104 42.1014 19.1329L42.0155 19.184ZM43.0075 20.096L42.9627 20.1854C43.4054 20.4068 43.9118 20.516 44.4795 20.516V20.416V20.316C43.9378 20.316 43.4629 20.2119 43.0522 20.0066L43.0075 20.096ZM44.4795 20.416V20.516C44.9698 20.516 45.4144 20.4397 45.8117 20.2852L45.7755 20.192L45.7392 20.0988C45.3685 20.243 44.9491 20.316 44.4795 20.316V20.416ZM45.7755 20.192L45.8117 20.2852C46.2106 20.1301 46.5643 19.8865 46.8726 19.5562L46.7995 19.488L46.7263 19.4198C46.4373 19.7295 46.1083 19.9553 45.7392 20.0988L45.7755 20.192ZM46.7995 19.488L46.724 19.5536L47.796 20.7856L47.8715 20.72L47.9469 20.6544L46.8749 19.4224L46.7995 19.488ZM47.8715 20.72L47.7955 20.6549C47.4225 21.0902 46.9503 21.428 46.3769 21.6677L46.4155 21.76L46.454 21.8523C47.054 21.6014 47.5524 21.2458 47.9474 20.7851L47.8715 20.72ZM46.4155 21.76L46.3777 21.6674C45.8158 21.8963 45.1677 22.012 44.4315 22.012V22.112V22.212C45.1885 22.212 45.8631 22.093 46.4532 21.8526L46.4155 21.76ZM57.0406 13.76L56.9959 13.8494L56.9966 13.8498L57.0406 13.76ZM58.3206 14.992L58.2332 15.0407L58.2337 15.0414L58.3206 14.992ZM58.7846 22V22.1H58.8846V22H58.7846ZM56.7846 22H56.6846V22.1H56.7846V22ZM56.2406 15.664L56.1678 15.7326L56.1689 15.7337L56.2406 15.664ZM53.5046 15.392L53.5514 15.4804L53.5514 15.4804L53.5046 15.392ZM52.6566 16.256L52.5681 16.2093L52.5677 16.2103L52.6566 16.256ZM52.3686 22V22.1H52.4686V22H52.3686ZM50.3686 22H50.2686V22.1H50.3686V22ZM50.3686 13.456V13.356H50.2686V13.456H50.3686ZM52.2726 13.456H52.3726V13.356H52.2726V13.456ZM52.2726 15.76L52.1823 15.8031L52.3726 15.76H52.2726ZM51.9366 15.056L51.8489 15.0079L51.8243 15.0528L51.8463 15.0991L51.9366 15.056ZM53.2326 13.808L53.278 13.8971L53.2786 13.8968L53.2326 13.808ZM55.2166 13.36V13.46C55.886 13.46 56.4783 13.5907 56.9959 13.8494L57.0406 13.76L57.0853 13.6706C56.5362 13.396 55.9125 13.26 55.2166 13.26V13.36ZM57.0406 13.76L56.9966 13.8498C57.5214 14.107 57.9333 14.5029 58.2332 15.0407L58.3206 14.992L58.4079 14.9433C58.0892 14.3717 57.6478 13.9463 57.0846 13.6702L57.0406 13.76ZM58.3206 14.992L58.2337 15.0414C58.5318 15.5657 58.6846 16.251 58.6846 17.104H58.7846H58.8846C58.8846 16.229 58.7281 15.5063 58.4075 14.9426L58.3206 14.992ZM58.7846 17.104H58.6846V22H58.7846H58.8846V17.104H58.7846ZM58.7846 22V21.9H56.7846V22V22.1H58.7846V22ZM56.7846 22H56.8846V17.36H56.7846H56.6846V22H56.7846ZM56.7846 17.36H56.8846C56.8846 16.5884 56.6999 15.9933 56.3123 15.5943L56.2406 15.664L56.1689 15.7337C56.5066 16.0813 56.6846 16.6169 56.6846 17.36H56.7846ZM56.2406 15.664L56.3133 15.5954C55.938 15.1973 55.4129 15.004 54.7526 15.004V15.104V15.204C55.3723 15.204 55.8392 15.384 56.1678 15.7326L56.2406 15.664ZM54.7526 15.104V15.004C54.2693 15.004 53.8368 15.103 53.4578 15.3036L53.5046 15.392L53.5514 15.4804C53.8977 15.297 54.2972 15.204 54.7526 15.204V15.104ZM53.5046 15.392L53.4578 15.3036C53.0763 15.5056 52.7796 15.8086 52.5681 16.2093L52.6566 16.256L52.745 16.3027C52.9389 15.9354 53.2075 15.6624 53.5514 15.4804L53.5046 15.392ZM52.6566 16.256L52.5677 16.2103C52.3662 16.602 52.2686 17.0937 52.2686 17.68H52.3686H52.4686C52.4686 17.1143 52.563 16.6567 52.7455 16.3017L52.6566 16.256ZM52.3686 17.68H52.2686V22H52.3686H52.4686V17.68H52.3686ZM52.3686 22V21.9H50.3686V22V22.1H52.3686V22ZM50.3686 22H50.4686V13.456H50.3686H50.2686V22H50.3686ZM50.3686 13.456V13.556H52.2726V13.456V13.356H50.3686V13.456ZM52.2726 13.456H52.1726V15.76H52.2726H52.3726V13.456H52.2726ZM52.2726 15.76L52.3628 15.7169L52.0268 15.0129L51.9366 15.056L51.8463 15.0991L52.1823 15.8031L52.2726 15.76ZM51.9366 15.056L52.0242 15.1041C52.313 14.5781 52.7301 14.1762 53.278 13.8971L53.2326 13.808L53.1872 13.7189C52.6044 14.0158 52.1575 14.4459 51.8489 15.0079L51.9366 15.056ZM53.2326 13.808L53.2786 13.8968C53.8384 13.6065 54.4835 13.46 55.2166 13.46V13.36V13.26C54.4563 13.26 53.7788 13.4121 53.1865 13.7192L53.2326 13.808ZM67.8556 15.456V15.356H67.7556V15.456H67.8556ZM73.4236 15.456H73.5236V15.356H73.4236V15.456ZM73.4236 17.168V17.268H73.5236V17.168H73.4236ZM67.8556 17.168H67.7556V17.268H67.8556V17.168ZM68.0156 20.256H67.9156V20.356H68.0156V20.256ZM74.3356 20.256H74.4356V20.156H74.3356V20.256ZM74.3356 22V22.1H74.4356V22H74.3356ZM65.9356 22H65.8356V22.1H65.9356V22ZM65.9356 10.8V10.7H65.8356V10.8H65.9356ZM74.1116 10.8H74.2116V10.7H74.1116V10.8ZM74.1116 12.544V12.644H74.2116V12.544H74.1116ZM68.0156 12.544V12.444H67.9156V12.544H68.0156ZM67.8556 15.456V15.556H73.4236V15.456V15.356H67.8556V15.456ZM73.4236 15.456H73.3236V17.168H73.4236H73.5236V15.456H73.4236ZM73.4236 17.168V17.068H67.8556V17.168V17.268H73.4236V17.168ZM67.8556 17.168H67.9556V15.456H67.8556H67.7556V17.168H67.8556ZM68.0156 20.256V20.356H74.3356V20.256V20.156H68.0156V20.256ZM74.3356 20.256H74.2356V22H74.3356H74.4356V20.256H74.3356ZM74.3356 22V21.9H65.9356V22V22.1H74.3356V22ZM65.9356 22H66.0356V10.8H65.9356H65.8356V22H65.9356ZM65.9356 10.8V10.9H74.1116V10.8V10.7H65.9356V10.8ZM74.1116 10.8H74.0116V12.544H74.1116H74.2116V10.8H74.1116ZM74.1116 12.544V12.444H68.0156V12.544V12.644H74.1116V12.544ZM68.0156 12.544H67.9156V20.256H68.0156H68.1156V12.544H68.0156ZM81.6482 22H81.5482V22.1H81.6482V22ZM81.6482 20.272H81.7482V20.2571L81.7439 20.2429L81.6482 20.272ZM81.5362 19.904H81.4362V19.9189L81.4405 19.9331L81.5362 19.904ZM81.0082 15.52L80.9397 15.5929L80.9409 15.594L81.0082 15.52ZM77.9842 15.248L77.9539 15.1527L77.9532 15.1529L77.9842 15.248ZM76.8162 15.872L76.7282 15.9194L76.7862 16.0272L76.8802 15.9488L76.8162 15.872ZM76.0322 14.416L75.9713 14.3367L75.9038 14.3885L75.9442 14.4634L76.0322 14.416ZM77.6642 13.632L77.6904 13.7285L77.6915 13.7282L77.6642 13.632ZM82.5122 14.256L82.4458 14.3308L82.447 14.3318L82.5122 14.256ZM83.5362 22V22.1H83.6362V22H83.5362ZM77.2802 21.792L77.2379 21.8826L77.2396 21.8834L77.2802 21.792ZM76.1602 20.88L76.0763 20.9344L76.0781 20.937L76.1602 20.88ZM76.1122 18.256L76.0269 18.2038L76.0258 18.2056L76.1122 18.256ZM77.2482 17.344L77.2876 17.4359L77.2876 17.4359L77.2482 17.344ZM81.8082 17.008H81.9082V16.908H81.8082V17.008ZM81.8082 18.336V18.436H81.9082V18.336H81.8082ZM78.0962 18.672L78.1635 18.746L78.1653 18.7443L78.0962 18.672ZM78.1762 20.336L78.1167 20.4164L78.1167 20.4164L78.1762 20.336ZM80.6882 20.32L80.6388 20.233L80.6378 20.2336L80.6882 20.32ZM81.5362 19.328L81.6325 19.301L81.5518 19.0129L81.443 19.2916L81.5362 19.328ZM81.8722 20.528L81.9656 20.5638L81.9774 20.5329L81.9685 20.501L81.8722 20.528ZM80.8322 21.696L80.7838 21.6085L80.783 21.6089L80.8322 21.696ZM81.6482 22H81.7482V20.272H81.6482H81.5482V22H81.6482ZM81.6482 20.272L81.7439 20.2429L81.6319 19.8749L81.5362 19.904L81.4405 19.9331L81.5525 20.3011L81.6482 20.272ZM81.5362 19.904H81.6362V16.88H81.5362H81.4362V19.904H81.5362ZM81.5362 16.88H81.6362C81.6362 16.2722 81.453 15.7892 81.0755 15.446L81.0082 15.52L80.9409 15.594C81.2674 15.8908 81.4362 16.3144 81.4362 16.88H81.5362ZM81.0082 15.52L81.0767 15.4471C80.6989 15.0923 80.1363 14.924 79.4082 14.924V15.024V15.124C80.1094 15.124 80.6135 15.2864 80.9397 15.5929L81.0082 15.52ZM79.4082 15.024V14.924C78.9176 14.924 78.4328 15.0003 77.9539 15.1527L77.9842 15.248L78.0145 15.3433C78.4743 15.197 78.9388 15.124 79.4082 15.124V15.024ZM77.9842 15.248L77.9532 15.1529C77.4844 15.3056 77.0834 15.5192 76.7522 15.7952L76.8162 15.872L76.8802 15.9488C77.189 15.6915 77.5667 15.4891 78.0152 15.3431L77.9842 15.248ZM76.8162 15.872L76.9043 15.8246L76.1203 14.3686L76.0322 14.416L75.9442 14.4634L76.7282 15.9194L76.8162 15.872ZM76.0322 14.416L76.0931 14.4953C76.5402 14.1522 77.072 13.8962 77.6904 13.7285L77.6642 13.632L77.638 13.5355C76.9977 13.7091 76.4416 13.9758 75.9713 14.3367L76.0322 14.416ZM77.6642 13.632L77.6915 13.7282C78.3224 13.5495 78.9745 13.46 79.6482 13.46V13.36V13.26C78.9566 13.26 78.286 13.3519 77.6369 13.5358L77.6642 13.632ZM79.6482 13.36V13.46C80.8703 13.46 81.798 13.7549 82.4458 14.3307L82.5122 14.256L82.5786 14.1813C81.8824 13.5624 80.9008 13.26 79.6482 13.26V13.36ZM82.5122 14.256L82.447 14.3318C83.1002 14.8931 83.4362 15.7724 83.4362 16.992H83.5362H83.6362C83.6362 15.737 83.2896 14.7922 82.5774 14.1802L82.5122 14.256ZM83.5362 16.992H83.4362V22H83.5362H83.6362V16.992H83.5362ZM83.5362 22V21.9H81.6482V22V22.1H83.5362V22ZM78.9602 22.112V22.012C78.3312 22.012 77.7856 21.9072 77.3208 21.7006L77.2802 21.792L77.2396 21.8834C77.7349 22.1035 78.3092 22.212 78.9602 22.212V22.112ZM77.2802 21.792L77.3225 21.7014C76.8563 21.4838 76.4976 21.1906 76.2423 20.823L76.1602 20.88L76.0781 20.937C76.3561 21.3374 76.7441 21.6522 77.2379 21.8826L77.2802 21.792ZM76.1602 20.88L76.2441 20.8256C75.9991 20.4478 75.8762 20.0242 75.8762 19.552H75.7762H75.6762C75.6762 20.0611 75.8093 20.5228 76.0763 20.9344L76.1602 20.88ZM75.7762 19.552H75.8762C75.8762 19.0882 75.9842 18.6739 76.1986 18.3064L76.1122 18.256L76.0258 18.2056C75.7922 18.6061 75.6762 19.0558 75.6762 19.552H75.7762ZM76.1122 18.256L76.1975 18.3081C76.4188 17.946 76.7789 17.6539 77.2876 17.4359L77.2482 17.344L77.2088 17.2521C76.6721 17.4821 76.2749 17.798 76.0269 18.2039L76.1122 18.256ZM77.2482 17.344L77.2876 17.4359C77.7931 17.2193 78.4714 17.108 79.3282 17.108V17.008V16.908C78.457 16.908 77.7487 17.0207 77.2088 17.2521L77.2482 17.344ZM79.3282 17.008V17.108H81.8082V17.008V16.908H79.3282V17.008ZM81.8082 17.008H81.7082V18.336H81.8082H81.9082V17.008H81.8082ZM81.8082 18.336V18.236H79.4722V18.336V18.436H81.8082V18.336ZM79.4722 18.336V18.236C79.1261 18.236 78.8322 18.2643 78.5925 18.3229C78.3534 18.3812 78.1617 18.4713 78.0272 18.5997L78.0962 18.672L78.1653 18.7443C78.2654 18.6487 78.4204 18.5708 78.6399 18.5171C78.8589 18.4637 79.1357 18.436 79.4722 18.436V18.336ZM78.0962 18.672L78.0289 18.598C77.7732 18.8305 77.6442 19.1241 77.6442 19.472H77.7442H77.8442C77.8442 19.1799 77.9499 18.9402 78.1635 18.746L78.0962 18.672ZM77.7442 19.472H77.6442C77.6442 19.8659 77.8029 20.1839 78.1167 20.4164L78.1762 20.336L78.2357 20.2556C77.9735 20.0614 77.8442 19.8034 77.8442 19.472H77.7442ZM78.1762 20.336L78.1167 20.4164C78.4279 20.6469 78.8517 20.756 79.3762 20.756V20.656V20.556C78.8768 20.556 78.5005 20.4518 78.2357 20.2556L78.1762 20.336ZM79.3762 20.656V20.756C79.8827 20.756 80.3377 20.6402 80.7386 20.4064L80.6882 20.32L80.6378 20.2336C80.2707 20.4478 79.8511 20.556 79.3762 20.556V20.656ZM80.6882 20.32L80.7376 20.407C81.1529 20.1712 81.4507 19.8223 81.6294 19.3644L81.5362 19.328L81.443 19.2916C81.2804 19.7084 81.0128 20.0208 80.6388 20.233L80.6882 20.32ZM81.5362 19.328L81.4399 19.355L81.7759 20.555L81.8722 20.528L81.9685 20.501L81.6325 19.301L81.5362 19.328ZM81.8722 20.528L81.7788 20.4922C81.5958 20.97 81.266 21.3417 80.7838 21.6085L80.8322 21.696L80.8806 21.7835C81.4011 21.4956 81.7646 21.0887 81.9656 20.5638L81.8722 20.528ZM80.8322 21.696L80.783 21.6089C80.3116 21.8754 79.706 22.012 78.9602 22.012V22.112V22.212C79.7291 22.212 80.3714 22.0713 80.8814 21.7831L80.8322 21.696ZM87.6706 24.896L87.6977 24.7997L87.6968 24.7995L87.6706 24.896ZM85.8306 24L85.7447 23.9488L85.7007 24.0227L85.7671 24.0772L85.8306 24ZM86.7266 22.496L86.7904 22.419L86.7004 22.3445L86.6407 22.4448L86.7266 22.496ZM88.1346 23.232L88.1662 23.1371L88.1651 23.1368L88.1346 23.232ZM91.9426 22.864L91.8727 22.7924L91.8719 22.7933L91.9426 22.864ZM92.5986 19.408L92.4986 19.3997V19.408H92.5986ZM92.7586 17.472L92.8589 17.4803L92.8585 17.4687L92.7586 17.472ZM92.6946 15.536H92.5945L92.5946 15.5393L92.6946 15.536ZM92.6946 13.456V13.356H92.5946V13.456H92.6946ZM94.5986 13.456H94.6986V13.356H94.5986V13.456ZM93.4146 24.112L93.3469 24.0384L93.3464 24.0389L93.4146 24.112ZM87.5266 21.104L87.479 21.192L87.4807 21.1929L87.5266 21.104ZM85.9746 19.648L85.889 19.6997L85.8896 19.7007L85.9746 19.648ZM85.9746 15.312L85.8896 15.2593L85.889 15.2603L85.9746 15.312ZM87.5266 13.872L87.4807 13.7831L87.4801 13.7834L87.5266 13.872ZM91.6866 13.792L91.6419 13.8814L91.6419 13.8814L91.6866 13.792ZM93.0626 15.136L92.9754 15.185L92.976 15.1861L93.0626 15.136ZM93.0626 19.824L92.9757 19.7745L92.9754 19.775L93.0626 19.824ZM91.6866 21.184L91.7313 21.2735L91.7326 21.2728L91.6866 21.184ZM91.3826 19.616L91.4283 19.705L91.4301 19.704L91.3826 19.616ZM92.2946 18.752L92.2088 18.7005L92.2084 18.7013L92.2946 18.752ZM92.2946 16.208L92.2077 16.2576L92.2095 16.2605L92.2946 16.208ZM91.3826 15.36L91.3369 15.449L91.3388 15.4499L91.3826 15.36ZM88.6786 15.36L88.7223 15.4499L88.7233 15.4494L88.6786 15.36ZM87.7506 16.208L87.6648 16.1565L87.6644 16.1573L87.7506 16.208ZM87.7506 18.752L87.6637 18.8016L87.6655 18.8045L87.7506 18.752ZM88.6786 19.616L88.631 19.704L88.6339 19.7054L88.6786 19.616ZM89.9906 25.216V25.116C89.2104 25.116 88.4462 25.0106 87.6977 24.7997L87.6706 24.896L87.6435 24.9923C88.4097 25.2081 89.1921 25.316 89.9906 25.316V25.216ZM87.6706 24.896L87.6968 24.7995C86.9605 24.5997 86.3608 24.3065 85.8941 23.9228L85.8306 24L85.7671 24.0772C86.2603 24.4828 86.8873 24.787 87.6444 24.9925L87.6706 24.896ZM85.8306 24L85.9165 24.0512L86.8125 22.5472L86.7266 22.496L86.6407 22.4448L85.7447 23.9488L85.8306 24ZM86.7266 22.496L86.6628 22.573C87.0479 22.8921 87.5292 23.1428 88.104 23.3272L88.1346 23.232L88.1651 23.1368C87.6093 22.9585 87.152 22.7186 86.7904 22.419L86.7266 22.496ZM88.1346 23.232L88.103 23.3269C88.6888 23.5221 89.2808 23.62 89.8786 23.62V23.52V23.42C89.303 23.42 88.7324 23.3259 88.1662 23.1371L88.1346 23.232ZM89.8786 23.52V23.62C90.8303 23.62 91.5494 23.3986 92.0133 22.9347L91.9426 22.864L91.8719 22.7933C91.4611 23.2041 90.8042 23.42 89.8786 23.42V23.52ZM91.9426 22.864L92.0124 22.9356C92.4759 22.4834 92.6986 21.8076 92.6986 20.928H92.5986H92.4986C92.4986 21.7764 92.284 22.3912 91.8727 22.7924L91.9426 22.864ZM92.5986 20.928H92.6986V19.408H92.5986H92.4986V20.928H92.5986ZM92.5986 19.408L92.6982 19.4162L92.8582 17.4802L92.7586 17.472L92.6589 17.4638L92.4989 19.3998L92.5986 19.408ZM92.7586 17.472L92.8585 17.4687L92.7945 15.5327L92.6946 15.536L92.5946 15.5393L92.6586 17.4753L92.7586 17.472ZM92.6946 15.536H92.7946V13.456H92.6946H92.5946V15.536H92.6946ZM92.6946 13.456V13.556H94.5986V13.456V13.356H92.6946V13.456ZM94.5986 13.456H94.4986V20.704H94.5986H94.6986V13.456H94.5986ZM94.5986 20.704H94.4986C94.4986 22.2353 94.1079 23.3391 93.3469 24.0384L93.4146 24.112L93.4822 24.1856C94.2999 23.4343 94.6986 22.2661 94.6986 20.704H94.5986ZM93.4146 24.112L93.3464 24.0389C92.5817 24.7519 91.4684 25.116 89.9906 25.116V25.216V25.316C91.4994 25.316 92.6688 24.9441 93.4828 24.1851L93.4146 24.112ZM89.7346 21.616V21.516C88.9384 21.516 88.2184 21.3485 87.5724 21.0151L87.5266 21.104L87.4807 21.1929C88.1575 21.5422 88.9094 21.716 89.7346 21.716V21.616ZM87.5266 21.104L87.5742 21.016C86.9386 20.6722 86.4342 20.1989 86.0595 19.5953L85.9746 19.648L85.8896 19.7007C86.283 20.3344 86.8133 20.8318 87.479 21.192L87.5266 21.104ZM85.9746 19.648L86.0602 19.5963C85.6976 18.9955 85.5146 18.2886 85.5146 17.472H85.4146H85.3146C85.3146 18.3194 85.5049 19.0632 85.889 19.6997L85.9746 19.648ZM85.4146 17.472H85.5146C85.5146 16.6663 85.6975 15.9647 86.0602 15.3637L85.9746 15.312L85.889 15.2603C85.505 15.8966 85.3146 16.635 85.3146 17.472H85.4146ZM85.9746 15.312L86.0595 15.3647C86.434 14.7614 86.938 14.2937 87.573 13.9606L87.5266 13.872L87.4801 13.7834C86.8138 14.133 86.2831 14.6253 85.8896 15.2593L85.9746 15.312ZM87.5266 13.872L87.5724 13.9609C88.2184 13.6275 88.9384 13.46 89.7346 13.46V13.36V13.26C88.9094 13.26 88.1575 13.4338 87.4807 13.7831L87.5266 13.872ZM89.7346 13.36V13.46C90.4464 13.46 91.0814 13.6012 91.6419 13.8814L91.6866 13.792L91.7313 13.7026C91.1397 13.4068 90.4735 13.26 89.7346 13.26V13.36ZM91.6866 13.792L91.6419 13.8814C92.1985 14.1598 92.643 14.5929 92.9754 15.185L93.0626 15.136L93.1498 15.087C92.7995 14.4631 92.3267 14.0002 91.7313 13.7026L91.6866 13.792ZM93.0626 15.136L92.976 15.1861C93.3167 15.7744 93.4906 16.5343 93.4906 17.472H93.5906H93.6906C93.6906 16.511 93.5125 15.7136 93.1491 15.0859L93.0626 15.136ZM93.5906 17.472H93.4906C93.4906 18.4096 93.3167 19.1752 92.9757 19.7745L93.0626 19.824L93.1495 19.8735C93.5125 19.2355 93.6906 18.4331 93.6906 17.472H93.5906ZM93.0626 19.824L92.9754 19.775C92.6428 20.3674 92.1979 20.8062 91.6405 21.0952L91.6866 21.184L91.7326 21.2728C92.3272 20.9645 92.7996 20.4966 93.1498 19.873L93.0626 19.824ZM91.6866 21.184L91.6419 21.0946C91.0814 21.3748 90.4464 21.516 89.7346 21.516V21.616V21.716C90.4735 21.716 91.1397 21.5692 91.7313 21.2734L91.6866 21.184ZM90.0386 19.92V20.02C90.5537 20.02 91.0177 19.9158 91.4283 19.705L91.3826 19.616L91.3369 19.527C90.9581 19.7216 90.5261 19.82 90.0386 19.82V19.92ZM91.3826 19.616L91.4301 19.704C91.8397 19.4826 92.1576 19.1821 92.3808 18.8027L92.2946 18.752L92.2084 18.7013C92.0049 19.0472 91.7148 19.3228 91.335 19.528L91.3826 19.616ZM92.2946 18.752L92.3803 18.8034C92.6146 18.413 92.7306 17.9682 92.7306 17.472H92.6306H92.5306C92.5306 17.9358 92.4226 18.3443 92.2088 18.7006L92.2946 18.752ZM92.6306 17.472H92.7306C92.7306 16.9758 92.6146 16.5358 92.3797 16.1555L92.2946 16.208L92.2095 16.2605C92.4226 16.6055 92.5306 17.0082 92.5306 17.472H92.6306ZM92.2946 16.208L92.3814 16.1584C92.1579 15.7672 91.8387 15.4707 91.4263 15.2701L91.3826 15.36L91.3388 15.4499C91.7158 15.6333 92.0046 15.9021 92.2078 16.2576L92.2946 16.208ZM91.3826 15.36L91.4283 15.271C91.0177 15.0602 90.5537 14.956 90.0386 14.956V15.056V15.156C90.5261 15.156 90.9581 15.2544 91.3369 15.449L91.3826 15.36ZM90.0386 15.056V14.956C89.5234 14.956 89.0545 15.0602 88.6339 15.2706L88.6786 15.36L88.7233 15.4494C89.1133 15.2544 89.5511 15.156 90.0386 15.156V15.056ZM88.6786 15.36L88.6348 15.2701C88.2229 15.4705 87.8989 15.7664 87.6648 16.1566L87.7506 16.208L87.8363 16.2594C88.0503 15.9029 88.3449 15.6335 88.7223 15.4499L88.6786 15.36ZM87.7506 16.208L87.6644 16.1573C87.4408 16.5374 87.3306 16.9767 87.3306 17.472H87.4306H87.5306C87.5306 17.0073 87.6337 16.6039 87.8368 16.2587L87.7506 16.208ZM87.4306 17.472H87.3306C87.3306 17.9673 87.4408 18.4115 87.6638 18.8016L87.7506 18.752L87.8374 18.7024C87.6337 18.3459 87.5306 17.9367 87.5306 17.472H87.4306ZM87.7506 18.752L87.6655 18.8045C87.8992 19.1829 88.2218 19.4828 88.631 19.704L88.6786 19.616L88.7261 19.528C88.346 19.3226 88.05 19.0464 87.8357 18.6995L87.7506 18.752ZM88.6786 19.616L88.6339 19.7054C89.0545 19.9158 89.5234 20.02 90.0386 20.02V19.92V19.82C89.5511 19.82 89.1133 19.7216 88.7233 19.5266L88.6786 19.616ZM97.228 22H97.128V22.1H97.228V22ZM97.228 10.128V10.028H97.128V10.128H97.228ZM99.228 10.128H99.328V10.028H99.228V10.128ZM99.228 22V22.1H99.328V22H99.228ZM97.228 22H97.328V10.128H97.228H97.128V22H97.228ZM97.228 10.128V10.228H99.228V10.128V10.028H97.228V10.128ZM99.228 10.128H99.128V22H99.228H99.328V10.128H99.228ZM99.228 22V21.9H97.228V22V22.1H99.228V22ZM103.373 21.552L103.325 21.6398L103.327 21.6406L103.373 21.552ZM101.725 19.984L101.638 20.0342L101.639 20.0352L101.725 19.984ZM101.709 15.472L101.622 15.4218L101.622 15.4222L101.709 15.472ZM103.277 13.92L103.228 13.8326L103.228 13.8329L103.277 13.92ZM107.789 13.904L107.838 13.8167L107.838 13.8167L107.789 13.904ZM109.869 18.064L109.769 18.054V18.064H109.869ZM109.853 18.368V18.468H109.942L109.952 18.379L109.853 18.368ZM102.733 18.368H102.633V18.468H102.733V18.368ZM102.733 17.04V16.94H102.633V17.04H102.733ZM108.797 17.04L108.844 17.1283L108.797 16.94V17.04ZM108.013 17.456L107.913 17.4538L107.909 17.6242L108.06 17.5443L108.013 17.456ZM107.709 16.16L107.622 16.2096L107.622 16.2096L107.709 16.16ZM106.829 15.28L106.778 15.3662L106.779 15.3668L106.829 15.28ZM104.269 15.28L104.219 15.1932L104.218 15.1938L104.269 15.28ZM103.405 16.176L103.318 16.1274L103.317 16.1283L103.405 16.176ZM104.445 20.096L104.4 20.1854L104.4 20.1854L104.445 20.096ZM107.213 20.192L107.249 20.2852L107.249 20.2852L107.213 20.192ZM108.237 19.488L108.312 19.4224L108.24 19.3387L108.164 19.4198L108.237 19.488ZM109.309 20.72L109.385 20.7851L109.441 20.7195L109.384 20.6544L109.309 20.72ZM107.853 21.76L107.891 21.8526L107.892 21.8523L107.853 21.76ZM105.869 22.112V22.012C104.933 22.012 104.117 21.828 103.419 21.4634L103.373 21.552L103.327 21.6406C104.058 22.0227 104.906 22.212 105.869 22.212V22.112ZM103.373 21.552L103.421 21.4642C102.732 21.0884 102.196 20.5781 101.811 19.9328L101.725 19.984L101.639 20.0352C102.043 20.7126 102.606 21.2476 103.325 21.6398L103.373 21.552ZM101.725 19.984L101.811 19.9338C101.437 19.2892 101.249 18.5549 101.249 17.728H101.149H101.049C101.049 18.5865 101.245 19.3561 101.638 20.0342L101.725 19.984ZM101.149 17.728H101.249C101.249 16.8897 101.432 16.1553 101.796 15.5218L101.709 15.472L101.622 15.4222C101.239 16.09 101.049 16.8596 101.049 17.728H101.149ZM101.709 15.472L101.795 15.5222C102.171 14.8762 102.68 14.3716 103.326 14.0071L103.277 13.92L103.228 13.8329C102.551 14.2151 102.015 14.7452 101.622 15.4218L101.709 15.472ZM103.277 13.92L103.326 14.0074C103.981 13.6432 104.727 13.46 105.565 13.46V13.36V13.26C104.697 13.26 103.917 13.4501 103.228 13.8326L103.277 13.92ZM105.565 13.36V13.46C106.382 13.46 107.106 13.6379 107.74 13.9913L107.789 13.904L107.838 13.8167C107.17 13.4448 106.412 13.26 105.565 13.26V13.36ZM107.789 13.904L107.74 13.9913C108.375 14.3449 108.873 14.8435 109.238 15.4892L109.325 15.44L109.412 15.3908C109.03 14.7138 108.505 14.1885 107.838 13.8167L107.789 13.904ZM109.325 15.44L109.238 15.4892C109.601 16.133 109.785 16.8941 109.785 17.776H109.885H109.985C109.985 16.8659 109.795 16.0697 109.412 15.3908L109.325 15.44ZM109.885 17.776H109.785C109.785 17.8573 109.78 17.9499 109.769 18.054L109.869 18.064L109.968 18.074C109.979 17.9648 109.985 17.8654 109.985 17.776H109.885ZM109.869 18.064H109.769C109.769 18.1674 109.764 18.265 109.754 18.357L109.853 18.368L109.952 18.379C109.963 18.279 109.969 18.174 109.969 18.064H109.869ZM109.853 18.368V18.268H102.733V18.368V18.468H109.853V18.368ZM102.733 18.368H102.833V17.04H102.733H102.633V18.368H102.733ZM102.733 17.04V17.14H108.797V17.04V16.94H102.733V17.04ZM108.797 17.04L108.75 16.9517L107.966 17.3677L108.013 17.456L108.06 17.5443L108.844 17.1283L108.797 17.04ZM108.013 17.456L108.113 17.4582C108.124 16.952 108.019 16.5016 107.796 16.1104L107.709 16.16L107.622 16.2096C107.825 16.5651 107.923 16.9787 107.913 17.4538L108.013 17.456ZM107.709 16.16L107.796 16.1104C107.574 15.7215 107.267 15.4154 106.879 15.1932L106.829 15.28L106.779 15.3668C107.137 15.5713 107.418 15.8518 107.622 16.2096L107.709 16.16ZM106.829 15.28L106.88 15.1938C106.5 14.9702 106.06 14.86 105.565 14.86V14.96V15.06C106.03 15.06 106.433 15.1631 106.778 15.3662L106.829 15.28ZM105.565 14.96V14.86C105.059 14.86 104.61 14.97 104.219 15.1932L104.269 15.28L104.319 15.3668C104.675 15.1633 105.089 15.06 105.565 15.06V14.96ZM104.269 15.28L104.218 15.1938C103.84 15.4166 103.539 15.7286 103.318 16.1274L103.405 16.176L103.492 16.2246C103.697 15.8554 103.973 15.5701 104.32 15.3662L104.269 15.28ZM103.405 16.176L103.317 16.1283C103.105 16.519 103.001 16.9787 103.001 17.504H103.101H103.201C103.201 17.0053 103.3 16.5797 103.493 16.2237L103.405 16.176ZM103.101 17.504H103.001V17.824H103.101H103.201V17.504H103.101ZM103.101 17.824H103.001C103.001 18.3519 103.122 18.8232 103.367 19.2351L103.453 19.184L103.539 19.1329C103.314 18.7554 103.201 18.3201 103.201 17.824H103.101ZM103.453 19.184L103.367 19.2351C103.612 19.6469 103.957 19.9639 104.4 20.1854L104.445 20.096L104.49 20.0066C104.079 19.8014 103.763 19.5104 103.539 19.1329L103.453 19.184ZM104.445 20.096L104.4 20.1854C104.843 20.4068 105.349 20.516 105.917 20.516V20.416V20.316C105.375 20.316 104.9 20.2119 104.49 20.0066L104.445 20.096ZM105.917 20.416V20.516C106.407 20.516 106.852 20.4397 107.249 20.2852L107.213 20.192L107.177 20.0988C106.806 20.243 106.387 20.316 105.917 20.316V20.416ZM107.213 20.192L107.249 20.2852C107.648 20.1301 108.002 19.8865 108.31 19.5562L108.237 19.488L108.164 19.4198C107.875 19.7295 107.546 19.9553 107.177 20.0988L107.213 20.192ZM108.237 19.488L108.162 19.5536L109.234 20.7856L109.309 20.72L109.384 20.6544L108.312 19.4224L108.237 19.488ZM109.309 20.72L109.233 20.6549C108.86 21.0902 108.388 21.428 107.814 21.6677L107.853 21.76L107.892 21.8523C108.491 21.6014 108.99 21.2458 109.385 20.7851L109.309 20.72ZM107.853 21.76L107.815 21.6674C107.253 21.8963 106.605 22.012 105.869 22.012V22.112V22.212C106.626 22.212 107.301 22.093 107.891 21.8526L107.853 21.76Z" fill="#374151" mask="url(#path-1-outside-1_3318_344)"/>
<path d="M66.14 28.732H68.414L68.36 29.002H66.086L66.14 28.732ZM65.78 30.724H68.372L68.312 31H65.42L66.26 26.8H69.068L69.008 27.076H66.512L65.78 30.724ZM70.1369 31.024C69.8889 31.024 69.6529 30.988 69.4289 30.916C69.2089 30.84 69.0389 30.744 68.9189 30.628L69.0809 30.394C69.1969 30.506 69.3509 30.596 69.5429 30.664C69.7389 30.728 69.9449 30.76 70.1609 30.76C70.4849 30.76 70.7349 30.702 70.9109 30.586C71.0909 30.47 71.1809 30.312 71.1809 30.112C71.1809 29.976 71.1369 29.874 71.0489 29.806C70.9649 29.738 70.8529 29.686 70.7129 29.65C70.5769 29.614 70.4309 29.58 70.2749 29.548C70.1229 29.516 69.9769 29.476 69.8369 29.428C69.7009 29.38 69.5889 29.306 69.5009 29.206C69.4169 29.106 69.3749 28.968 69.3749 28.792C69.3749 28.6 69.4289 28.434 69.5369 28.294C69.6449 28.15 69.7969 28.04 69.9929 27.964C70.1889 27.884 70.4189 27.844 70.6829 27.844C70.8789 27.844 71.0709 27.872 71.2589 27.928C71.4509 27.98 71.6029 28.054 71.7149 28.15L71.5769 28.384C71.4569 28.292 71.3149 28.224 71.1509 28.18C70.9909 28.132 70.8269 28.108 70.6589 28.108C70.3509 28.108 70.1089 28.168 69.9329 28.288C69.7569 28.408 69.6689 28.566 69.6689 28.762C69.6689 28.898 69.7129 29.002 69.8009 29.074C69.8889 29.146 70.0009 29.2 70.1369 29.236C70.2729 29.272 70.4189 29.306 70.5749 29.338C70.7309 29.366 70.8769 29.406 71.0129 29.458C71.1529 29.506 71.2649 29.578 71.3489 29.674C71.4369 29.77 71.4809 29.906 71.4809 30.082C71.4809 30.278 71.4249 30.448 71.3129 30.592C71.2009 30.732 71.0449 30.84 70.8449 30.916C70.6449 30.988 70.4089 31.024 70.1369 31.024ZM73.0742 31.024C72.9022 31.024 72.7562 30.988 72.6362 30.916C72.5202 30.844 72.4402 30.74 72.3962 30.604C72.3522 30.468 72.3482 30.306 72.3842 30.118L72.9722 27.184H73.2722L72.6902 30.094C72.6462 30.314 72.6602 30.482 72.7322 30.598C72.8082 30.71 72.9462 30.766 73.1462 30.766C73.2422 30.766 73.3322 30.752 73.4162 30.724C73.5042 30.692 73.5842 30.648 73.6562 30.592L73.7462 30.814C73.6502 30.89 73.5422 30.944 73.4222 30.976C73.3062 31.008 73.1902 31.024 73.0742 31.024ZM72.2042 28.126L72.2522 27.868H74.1302L74.0822 28.126H72.2042ZM75.7255 31.024C75.4575 31.024 75.2215 30.972 75.0175 30.868C74.8135 30.764 74.6555 30.614 74.5435 30.418C74.4315 30.222 74.3755 29.99 74.3755 29.722C74.3755 29.45 74.4175 29.2 74.5015 28.972C74.5895 28.744 74.7135 28.546 74.8735 28.378C75.0335 28.21 75.2215 28.08 75.4375 27.988C75.6535 27.892 75.8895 27.844 76.1455 27.844C76.4215 27.844 76.6555 27.894 76.8475 27.994C77.0395 28.09 77.1855 28.232 77.2855 28.42C77.3895 28.604 77.4415 28.828 77.4415 29.092C77.4455 29.464 77.3755 29.796 77.2315 30.088C77.0915 30.38 76.8915 30.61 76.6315 30.778C76.3755 30.942 76.0735 31.024 75.7255 31.024ZM75.7855 30.754C76.0695 30.754 76.3215 30.686 76.5415 30.55C76.7615 30.414 76.9355 30.226 77.0635 29.986C77.1915 29.742 77.2555 29.468 77.2555 29.164C77.2555 28.828 77.1575 28.57 76.9615 28.39C76.7695 28.206 76.4975 28.114 76.1455 28.114C75.8655 28.114 75.6135 28.184 75.3895 28.324C75.1695 28.46 74.9955 28.648 74.8675 28.888C74.7395 29.128 74.6755 29.4 74.6755 29.704C74.6755 30.036 74.7715 30.294 74.9635 30.478C75.1595 30.662 75.4335 30.754 75.7855 30.754ZM76.9255 31L77.1175 30.022L77.2915 29.476L77.3335 28.9L77.5375 27.868H77.8375L77.2135 31H76.9255ZM79.4023 31.024C79.2303 31.024 79.0843 30.988 78.9643 30.916C78.8483 30.844 78.7683 30.74 78.7243 30.604C78.6803 30.468 78.6763 30.306 78.7123 30.118L79.3003 27.184H79.6003L79.0183 30.094C78.9743 30.314 78.9883 30.482 79.0603 30.598C79.1363 30.71 79.2743 30.766 79.4743 30.766C79.5703 30.766 79.6603 30.752 79.7443 30.724C79.8323 30.692 79.9123 30.648 79.9843 30.592L80.0743 30.814C79.9783 30.89 79.8703 30.944 79.7503 30.976C79.6343 31.008 79.5183 31.024 79.4023 31.024ZM78.5323 28.126L78.5803 27.868H80.4583L80.4103 28.126H78.5323ZM82.1316 31.024C81.8396 31.024 81.5856 30.972 81.3696 30.868C81.1536 30.76 80.9876 30.608 80.8716 30.412C80.7596 30.216 80.7036 29.982 80.7036 29.71C80.7036 29.354 80.7776 29.036 80.9256 28.756C81.0776 28.476 81.2816 28.254 81.5376 28.09C81.7976 27.926 82.0896 27.844 82.4136 27.844C82.6896 27.844 82.9256 27.896 83.1216 28C83.3176 28.104 83.4696 28.254 83.5776 28.45C83.6896 28.642 83.7456 28.876 83.7456 29.152C83.7456 29.212 83.7416 29.272 83.7336 29.332C83.7256 29.392 83.7176 29.448 83.7096 29.5H80.9316L80.9736 29.266H83.5656L83.4456 29.368C83.4896 29.092 83.4716 28.862 83.3916 28.678C83.3116 28.49 83.1856 28.348 83.0136 28.252C82.8456 28.152 82.6436 28.102 82.4076 28.102C82.1356 28.102 81.8916 28.172 81.6756 28.312C81.4636 28.448 81.2976 28.636 81.1776 28.876C81.0576 29.112 80.9976 29.386 80.9976 29.698C80.9976 30.038 81.0956 30.3 81.2916 30.484C81.4876 30.664 81.7756 30.754 82.1556 30.754C82.3796 30.754 82.5836 30.718 82.7676 30.646C82.9556 30.57 83.1096 30.466 83.2296 30.334L83.3676 30.544C83.2316 30.692 83.0536 30.81 82.8336 30.898C82.6176 30.982 82.3836 31.024 82.1316 31.024ZM85.1955 31.024C84.9475 31.024 84.7115 30.988 84.4875 30.916C84.2675 30.84 84.0975 30.744 83.9775 30.628L84.1395 30.394C84.2555 30.506 84.4095 30.596 84.6015 30.664C84.7975 30.728 85.0035 30.76 85.2195 30.76C85.5435 30.76 85.7935 30.702 85.9695 30.586C86.1495 30.47 86.2395 30.312 86.2395 30.112C86.2395 29.976 86.1955 29.874 86.1075 29.806C86.0235 29.738 85.9115 29.686 85.7715 29.65C85.6355 29.614 85.4895 29.58 85.3335 29.548C85.1815 29.516 85.0355 29.476 84.8955 29.428C84.7595 29.38 84.6475 29.306 84.5595 29.206C84.4755 29.106 84.4335 28.968 84.4335 28.792C84.4335 28.6 84.4875 28.434 84.5955 28.294C84.7035 28.15 84.8555 28.04 85.0515 27.964C85.2475 27.884 85.4775 27.844 85.7415 27.844C85.9375 27.844 86.1295 27.872 86.3175 27.928C86.5095 27.98 86.6615 28.054 86.7735 28.15L86.6355 28.384C86.5155 28.292 86.3735 28.224 86.2095 28.18C86.0495 28.132 85.8855 28.108 85.7175 28.108C85.4095 28.108 85.1675 28.168 84.9915 28.288C84.8155 28.408 84.7275 28.566 84.7275 28.762C84.7275 28.898 84.7715 29.002 84.8595 29.074C84.9475 29.146 85.0595 29.2 85.1955 29.236C85.3315 29.272 85.4775 29.306 85.6335 29.338C85.7895 29.366 85.9355 29.406 86.0715 29.458C86.2115 29.506 86.3235 29.578 86.4075 29.674C86.4955 29.77 86.5395 29.906 86.5395 30.082C86.5395 30.278 86.4835 30.448 86.3715 30.592C86.2595 30.732 86.1035 30.84 85.9035 30.916C85.7035 30.988 85.4675 31.024 85.1955 31.024ZM89.8358 31.03C89.5838 31.03 89.3658 30.992 89.1818 30.916C89.0018 30.836 88.8618 30.726 88.7618 30.586C88.6618 30.446 88.6118 30.282 88.6118 30.094C88.6118 29.902 88.6598 29.726 88.7558 29.566C88.8558 29.402 89.0138 29.242 89.2298 29.086C89.4458 28.93 89.7318 28.766 90.0878 28.594C90.3998 28.446 90.6438 28.316 90.8198 28.204C90.9998 28.092 91.1258 27.982 91.1978 27.874C91.2698 27.762 91.3058 27.636 91.3058 27.496C91.3058 27.36 91.2538 27.246 91.1498 27.154C91.0458 27.058 90.8958 27.01 90.6998 27.01C90.4558 27.01 90.2578 27.078 90.1058 27.214C89.9578 27.346 89.8838 27.524 89.8838 27.748C89.8838 27.864 89.9118 27.986 89.9678 28.114C90.0238 28.238 90.1078 28.374 90.2198 28.522L92.0018 30.874L91.7918 31.06L89.9618 28.648C89.8498 28.496 89.7618 28.35 89.6978 28.21C89.6338 28.07 89.6018 27.926 89.6018 27.778C89.6018 27.574 89.6478 27.398 89.7398 27.25C89.8358 27.098 89.9658 26.982 90.1298 26.902C90.2978 26.818 90.4918 26.776 90.7118 26.776C90.8838 26.776 91.0338 26.806 91.1618 26.866C91.2938 26.922 91.3938 27.002 91.4618 27.106C91.5338 27.21 91.5698 27.334 91.5698 27.478C91.5698 27.658 91.5238 27.818 91.4318 27.958C91.3438 28.098 91.1998 28.234 90.9998 28.366C90.7998 28.498 90.5338 28.644 90.2018 28.804C89.8778 28.96 89.6218 29.104 89.4338 29.236C89.2458 29.368 89.1118 29.5 89.0318 29.632C88.9518 29.76 88.9118 29.902 88.9118 30.058C88.9118 30.27 88.9938 30.444 89.1578 30.58C89.3258 30.712 89.5578 30.778 89.8538 30.778C90.1378 30.778 90.4038 30.72 90.6518 30.604C90.8998 30.484 91.1238 30.304 91.3238 30.064C91.5238 29.824 91.6938 29.522 91.8338 29.158L92.0738 29.236C91.9178 29.64 91.7278 29.976 91.5038 30.244C91.2798 30.508 91.0258 30.706 90.7418 30.838C90.4618 30.966 90.1598 31.03 89.8358 31.03Z" fill="url(#paint0_linear_3318_344)"/>
<path d="M94.3184 31L95.1584 26.8H96.7184C97.1384 26.8 97.4944 26.87 97.7864 27.01C98.0784 27.15 98.2984 27.348 98.4464 27.604C98.5984 27.856 98.6744 28.154 98.6744 28.498C98.6744 28.862 98.6124 29.198 98.4884 29.506C98.3684 29.814 98.1924 30.08 97.9604 30.304C97.7324 30.524 97.4584 30.696 97.1384 30.82C96.8184 30.94 96.4584 31 96.0584 31H94.3184ZM94.6784 30.724H96.0764C96.5444 30.724 96.9484 30.63 97.2884 30.442C97.6324 30.25 97.8964 29.988 98.0804 29.656C98.2684 29.32 98.3624 28.938 98.3624 28.51C98.3624 28.222 98.3004 27.97 98.1764 27.754C98.0524 27.538 97.8664 27.372 97.6184 27.256C97.3704 27.136 97.0584 27.076 96.6824 27.076H95.4104L94.6784 30.724ZM100.553 31.024C100.261 31.024 100.007 30.972 99.7915 30.868C99.5755 30.76 99.4095 30.608 99.2935 30.412C99.1815 30.216 99.1255 29.982 99.1255 29.71C99.1255 29.354 99.1995 29.036 99.3475 28.756C99.4995 28.476 99.7035 28.254 99.9595 28.09C100.219 27.926 100.511 27.844 100.835 27.844C101.111 27.844 101.347 27.896 101.543 28C101.739 28.104 101.891 28.254 101.999 28.45C102.111 28.642 102.167 28.876 102.167 29.152C102.167 29.212 102.163 29.272 102.155 29.332C102.147 29.392 102.139 29.448 102.131 29.5H99.3535L99.3955 29.266H101.987L101.867 29.368C101.911 29.092 101.893 28.862 101.813 28.678C101.733 28.49 101.607 28.348 101.435 28.252C101.267 28.152 101.065 28.102 100.829 28.102C100.557 28.102 100.313 28.172 100.097 28.312C99.8855 28.448 99.7195 28.636 99.5995 28.876C99.4795 29.112 99.4195 29.386 99.4195 29.698C99.4195 30.038 99.5175 30.3 99.7135 30.484C99.9095 30.664 100.197 30.754 100.577 30.754C100.801 30.754 101.005 30.718 101.189 30.646C101.377 30.57 101.531 30.466 101.651 30.334L101.789 30.544C101.653 30.692 101.475 30.81 101.255 30.898C101.039 30.982 100.805 31.024 100.553 31.024ZM103.505 31L102.713 27.868H103.019L103.757 30.832H103.613L105.527 27.868H105.845L103.811 31H103.505ZM107.163 31.024C106.871 31.024 106.617 30.972 106.401 30.868C106.185 30.76 106.019 30.608 105.903 30.412C105.791 30.216 105.735 29.982 105.735 29.71C105.735 29.354 105.809 29.036 105.957 28.756C106.109 28.476 106.313 28.254 106.569 28.09C106.829 27.926 107.121 27.844 107.445 27.844C107.721 27.844 107.957 27.896 108.153 28C108.349 28.104 108.501 28.254 108.609 28.45C108.721 28.642 108.777 28.876 108.777 29.152C108.777 29.212 108.773 29.272 108.765 29.332C108.757 29.392 108.749 29.448 108.741 29.5H105.963L106.005 29.266H108.597L108.477 29.368C108.521 29.092 108.503 28.862 108.423 28.678C108.343 28.49 108.217 28.348 108.045 28.252C107.877 28.152 107.675 28.102 107.439 28.102C107.167 28.102 106.923 28.172 106.707 28.312C106.495 28.448 106.329 28.636 106.209 28.876C106.089 29.112 106.029 29.386 106.029 29.698C106.029 30.038 106.127 30.3 106.323 30.484C106.519 30.664 106.807 30.754 107.187 30.754C107.411 30.754 107.615 30.718 107.799 30.646C107.987 30.57 108.141 30.466 108.261 30.334L108.399 30.544C108.263 30.692 108.085 30.81 107.865 30.898C107.649 30.982 107.415 31.024 107.163 31.024ZM109.369 31L110.257 26.548H110.557L109.669 31H109.369ZM112.271 31.024C111.991 31.024 111.747 30.972 111.539 30.868C111.331 30.76 111.169 30.608 111.053 30.412C110.941 30.216 110.885 29.986 110.885 29.722C110.885 29.362 110.961 29.042 111.113 28.762C111.269 28.478 111.481 28.254 111.749 28.09C112.021 27.926 112.331 27.844 112.679 27.844C112.963 27.844 113.207 27.898 113.411 28.006C113.619 28.11 113.779 28.26 113.891 28.456C114.007 28.648 114.065 28.878 114.065 29.146C114.065 29.506 113.987 29.828 113.831 30.112C113.679 30.392 113.467 30.614 113.195 30.778C112.927 30.942 112.619 31.024 112.271 31.024ZM112.295 30.754C112.579 30.754 112.831 30.686 113.051 30.55C113.271 30.414 113.445 30.226 113.573 29.986C113.701 29.742 113.765 29.468 113.765 29.164C113.765 28.828 113.667 28.57 113.471 28.39C113.279 28.206 113.007 28.114 112.655 28.114C112.375 28.114 112.123 28.184 111.899 28.324C111.679 28.46 111.505 28.648 111.377 28.888C111.249 29.128 111.185 29.4 111.185 29.704C111.185 30.036 111.281 30.294 111.473 30.478C111.669 30.662 111.943 30.754 112.295 30.754ZM116.346 31.024C116.074 31.024 115.84 30.976 115.644 30.88C115.452 30.78 115.306 30.638 115.206 30.454C115.106 30.266 115.054 30.04 115.05 29.776C115.05 29.4 115.12 29.068 115.26 28.78C115.404 28.488 115.604 28.26 115.86 28.096C116.12 27.928 116.422 27.844 116.766 27.844C117.038 27.844 117.274 27.896 117.474 28C117.678 28.104 117.836 28.254 117.948 28.45C118.064 28.646 118.122 28.878 118.122 29.146C118.122 29.418 118.078 29.668 117.99 29.896C117.902 30.124 117.778 30.322 117.618 30.49C117.462 30.658 117.276 30.79 117.06 30.886C116.844 30.978 116.606 31.024 116.346 31.024ZM114.42 32.164L115.278 27.868H115.572L115.374 28.846L115.206 29.392L115.164 29.968L114.72 32.164H114.42ZM116.352 30.754C116.636 30.754 116.888 30.686 117.108 30.55C117.328 30.414 117.5 30.226 117.624 29.986C117.752 29.742 117.816 29.468 117.816 29.164C117.816 28.828 117.718 28.57 117.522 28.39C117.33 28.206 117.058 28.114 116.706 28.114C116.426 28.114 116.174 28.182 115.95 28.318C115.73 28.454 115.556 28.642 115.428 28.882C115.3 29.122 115.236 29.396 115.236 29.704C115.236 30.036 115.334 30.294 115.53 30.478C115.726 30.662 116 30.754 116.352 30.754ZM123.161 27.844C123.445 27.844 123.673 27.9 123.845 28.012C124.021 28.12 124.141 28.276 124.205 28.48C124.269 28.68 124.273 28.916 124.217 29.188L123.851 31H123.551L123.917 29.188C123.981 28.856 123.945 28.594 123.809 28.402C123.677 28.21 123.441 28.114 123.101 28.114C122.765 28.114 122.481 28.208 122.249 28.396C122.017 28.58 121.863 28.856 121.787 29.224L121.427 31H121.127L121.493 29.188C121.557 28.856 121.521 28.594 121.385 28.402C121.253 28.21 121.017 28.114 120.677 28.114C120.333 28.114 120.045 28.214 119.813 28.414C119.581 28.614 119.425 28.908 119.345 29.296L119.003 31H118.703L119.327 27.868H119.621L119.441 28.774L119.363 28.696C119.511 28.4 119.705 28.184 119.945 28.048C120.185 27.912 120.455 27.844 120.755 27.844C120.979 27.844 121.169 27.882 121.325 27.958C121.485 28.034 121.607 28.142 121.691 28.282C121.775 28.422 121.821 28.59 121.829 28.786L121.679 28.75C121.831 28.446 122.035 28.22 122.291 28.072C122.547 27.92 122.837 27.844 123.161 27.844ZM126.469 31.024C126.177 31.024 125.923 30.972 125.707 30.868C125.491 30.76 125.325 30.608 125.209 30.412C125.097 30.216 125.041 29.982 125.041 29.71C125.041 29.354 125.115 29.036 125.263 28.756C125.415 28.476 125.619 28.254 125.875 28.09C126.135 27.926 126.427 27.844 126.751 27.844C127.027 27.844 127.263 27.896 127.459 28C127.655 28.104 127.807 28.254 127.915 28.45C128.027 28.642 128.083 28.876 128.083 29.152C128.083 29.212 128.079 29.272 128.071 29.332C128.063 29.392 128.055 29.448 128.047 29.5H125.269L125.311 29.266H127.903L127.783 29.368C127.827 29.092 127.809 28.862 127.729 28.678C127.649 28.49 127.523 28.348 127.351 28.252C127.183 28.152 126.981 28.102 126.745 28.102C126.473 28.102 126.229 28.172 126.013 28.312C125.801 28.448 125.635 28.636 125.515 28.876C125.395 29.112 125.335 29.386 125.335 29.698C125.335 30.038 125.433 30.3 125.629 30.484C125.825 30.664 126.113 30.754 126.493 30.754C126.717 30.754 126.921 30.718 127.105 30.646C127.293 30.57 127.447 30.466 127.567 30.334L127.705 30.544C127.569 30.692 127.391 30.81 127.171 30.898C126.955 30.982 126.721 31.024 126.469 31.024ZM130.769 27.844C131.053 27.844 131.283 27.9 131.459 28.012C131.639 28.12 131.761 28.276 131.825 28.48C131.893 28.68 131.899 28.916 131.843 29.188L131.483 31H131.183L131.543 29.188C131.611 28.856 131.573 28.594 131.429 28.402C131.289 28.21 131.043 28.114 130.691 28.114C130.335 28.114 130.037 28.214 129.797 28.414C129.557 28.61 129.397 28.904 129.317 29.296L128.975 31H128.675L129.299 27.868H129.593L129.413 28.774L129.335 28.696C129.483 28.4 129.681 28.184 129.929 28.048C130.177 27.912 130.457 27.844 130.769 27.844ZM133.643 31.024C133.471 31.024 133.325 30.988 133.205 30.916C133.089 30.844 133.009 30.74 132.965 30.604C132.921 30.468 132.917 30.306 132.953 30.118L133.541 27.184H133.841L133.259 30.094C133.215 30.314 133.229 30.482 133.301 30.598C133.377 30.71 133.515 30.766 133.715 30.766C133.811 30.766 133.901 30.752 133.985 30.724C134.073 30.692 134.153 30.648 134.225 30.592L134.315 30.814C134.219 30.89 134.111 30.944 133.991 30.976C133.875 31.008 133.759 31.024 133.643 31.024ZM132.773 28.126L132.821 27.868H134.699L134.651 28.126H132.773Z" fill="#DBBC57"/>
<defs>
<linearGradient id="paint0_linear_3318_344" x1="65" y1="29" x2="135" y2="29" gradientUnits="userSpaceOnUse">
<stop stop-color="#D4BE37"/>
</linearGradient>
</defs>
</svg>
